<?xml version="1.0" encoding="UTF-8" standalone="no"?>
<!-- Created with Inkscape (http://www.inkscape.org/) -->

<svg
   xmlns:dc="http://purl.org/dc/elements/1.1/"
   xmlns:cc="http://creativecommons.org/ns#"
   xmlns:rdf="http://www.w3.org/1999/02/22-rdf-syntax-ns#"
   xmlns:svg="http://www.w3.org/2000/svg"
   xmlns="http://www.w3.org/2000/svg"
   xmlns:sodipodi="http://sodipodi.sourceforge.net/DTD/sodipodi-0.dtd"
   xmlns:inkscape="http://www.inkscape.org/namespaces/inkscape"
   width="210mm"
   height="297mm"
   viewBox="0 0 210 297"
   version="1.1"
   id="svg8"
   inkscape:version="0.92.4 (5da689c313, 2019-01-14)"
   sodipodi:docname="easings.svg">
  <defs
     id="defs2">
    <marker
       inkscape:isstock="true"
       style="overflow:visible"
       id="marker2288"
       refX="0.0"
       refY="0.0"
       orient="auto"
       inkscape:stockid="DotS">
      <path
         transform="scale(0.2) translate(7.4, 1)"
         style="fill-rule:evenodd;stroke:#ccf2fb;stroke-width:1pt;stroke-opacity:1;fill:#ccf2fb;fill-opacity:1"
         d="M -2.5,-1.0 C -2.5,1.7600000 -4.7400000,4.0 -7.5,4.0 C -10.260000,4.0 -12.5,1.7600000 -12.5,-1.0 C -12.5,-3.7600000 -10.260000,-6.0 -7.5,-6.0 C -4.7400000,-6.0 -2.5,-3.7600000 -2.5,-1.0 z "
         id="path2286" />
    </marker>
    <marker
       inkscape:isstock="true"
       style="overflow:visible"
       id="marker2254"
       refX="0.0"
       refY="0.0"
       orient="auto"
       inkscape:stockid="DotS">
      <path
         transform="scale(0.2) translate(7.4, 1)"
         style="fill-rule:evenodd;stroke:#ccf2fb;stroke-width:1pt;stroke-opacity:1;fill:#ccf2fb;fill-opacity:1"
         d="M -2.5,-1.0 C -2.5,1.7600000 -4.7400000,4.0 -7.5,4.0 C -10.260000,4.0 -12.5,1.7600000 -12.5,-1.0 C -12.5,-3.7600000 -10.260000,-6.0 -7.5,-6.0 C -4.7400000,-6.0 -2.5,-3.7600000 -2.5,-1.0 z "
         id="path2252" />
    </marker>
    <marker
       inkscape:stockid="DotS"
       orient="auto"
       refY="0.0"
       refX="0.0"
       id="marker1312"
       style="overflow:visible"
       inkscape:isstock="true"
       inkscape:collect="always">
      <path
         id="path1310"
         d="M -2.5,-1.0 C -2.5,1.7600000 -4.7400000,4.0 -7.5,4.0 C -10.260000,4.0 -12.5,1.7600000 -12.5,-1.0 C -12.5,-3.7600000 -10.260000,-6.0 -7.5,-6.0 C -4.7400000,-6.0 -2.5,-3.7600000 -2.5,-1.0 z "
         style="fill-rule:evenodd;stroke:#ccf2fb;stroke-width:1pt;stroke-opacity:1;fill:#ccf2fb;fill-opacity:1"
         transform="scale(0.2) translate(7.4, 1)" />
    </marker>
    <marker
       inkscape:stockid="DotS"
       orient="auto"
       refY="0.0"
       refX="0.0"
       id="DotS"
       style="overflow:visible"
       inkscape:isstock="true"
       inkscape:collect="always">
      <path
         id="path1033"
         d="M -2.5,-1.0 C -2.5,1.7600000 -4.7400000,4.0 -7.5,4.0 C -10.260000,4.0 -12.5,1.7600000 -12.5,-1.0 C -12.5,-3.7600000 -10.260000,-6.0 -7.5,-6.0 C -4.7400000,-6.0 -2.5,-3.7600000 -2.5,-1.0 z "
         style="fill-rule:evenodd;stroke:#ccf2fb;stroke-width:1pt;stroke-opacity:1;fill:#ccf2fb;fill-opacity:1"
         transform="scale(0.2) translate(7.4, 1)" />
    </marker>
    <marker
       inkscape:stockid="DotM"
       orient="auto"
       refY="0.0"
       refX="0.0"
       id="DotM"
       style="overflow:visible"
       inkscape:isstock="true">
      <path
         id="path1030"
         d="M -2.5,-1.0 C -2.5,1.7600000 -4.7400000,4.0 -7.5,4.0 C -10.260000,4.0 -12.5,1.7600000 -12.5,-1.0 C -12.5,-3.7600000 -10.260000,-6.0 -7.5,-6.0 C -4.7400000,-6.0 -2.5,-3.7600000 -2.5,-1.0 z "
         style="fill-rule:evenodd;stroke:#000000;stroke-width:1pt;stroke-opacity:1;fill:#000000;fill-opacity:1"
         transform="scale(0.4) translate(7.4, 1)" />
    </marker>
    <meshgradient
       inkscape:collect="always"
       id="meshgradient874"
       gradientUnits="userSpaceOnUse"
       x="-194.27975"
       y="21.077377"
       gradientTransform="matrix(0.81564255,0,0,0.68534901,-10.870505,36.114146)">
      <meshrow
         id="meshrow876">
        <meshpatch
           id="meshpatch878">
          <stop
             path="c 90.2103,0  180.421,0  270.631,0"
             style="stop-color:#00aad4;stop-opacity:1"
             id="stop880" />
          <stop
             path="c 0,62.4652  0,124.93  0,187.396"
             style="stop-color:#0065d4;stop-opacity:1"
             id="stop882" />
          <stop
             path="c -90.2103,0  -180.421,0  -270.631,0"
             style="stop-color:#00d446;stop-opacity:1"
             id="stop884" />
          <stop
             path="c 0,-62.4652  0,-124.93  0,-187.396"
             style="stop-color:#7900d4;stop-opacity:1"
             id="stop886" />
        </meshpatch>
      </meshrow>
    </meshgradient>
    <filter
       inkscape:collect="always"
       style="color-interpolation-filters:sRGB"
       id="filter905"
       x="-0.093960549"
       width="1.1879211"
       y="-0.16149213"
       height="1.3229843">
      <feGaussianBlur
         inkscape:collect="always"
         stdDeviation="8.6419476"
         id="feGaussianBlur907" />
    </filter>
    <filter
       inkscape:collect="always"
       style="color-interpolation-filters:sRGB"
       id="filter2762"
       x="-0.070451284"
       width="1.1409026"
       y="-0.11168265"
       height="1.2233653">
      <feGaussianBlur
         inkscape:collect="always"
         stdDeviation="4.9352244"
         id="feGaussianBlur2764" />
    </filter>
    <filter
       inkscape:collect="always"
       style="color-interpolation-filters:sRGB"
       id="filter3400"
       x="-0.031519143"
       width="1.0630383"
       y="-0.4372819"
       height="1.8745638">
      <feGaussianBlur
         inkscape:collect="always"
         stdDeviation="3.2336304"
         id="feGaussianBlur3402" />
    </filter>
    <filter
       inkscape:collect="always"
       style="color-interpolation-filters:sRGB"
       id="filter905-2"
       x="-0.093960546"
       width="1.187921"
       y="-0.16149212"
       height="1.3229843">
      <feGaussianBlur
         inkscape:collect="always"
         stdDeviation="8.6419476"
         id="feGaussianBlur907-6" />
    </filter>
    <marker
       inkscape:isstock="true"
       style="overflow:visible"
       id="marker2254-7"
       refX="0"
       refY="0"
       orient="auto"
       inkscape:stockid="DotS">
      <path
         inkscape:connector-curvature="0"
         transform="matrix(0.2,0,0,0.2,1.48,0.2)"
         style="fill:#ccf2fb;fill-opacity:1;fill-rule:evenodd;stroke:#ccf2fb;stroke-width:1.00000003pt;stroke-opacity:1"
         d="m -2.5,-1 c 0,2.76 -2.24,5 -5,5 -2.76,0 -5,-2.24 -5,-5 0,-2.76 2.24,-5 5,-5 2.76,0 5,2.24 5,5 z"
         id="path2252-4" />
    </marker>
    <marker
       inkscape:isstock="true"
       style="overflow:visible"
       id="marker2288-4"
       refX="0"
       refY="0"
       orient="auto"
       inkscape:stockid="DotS">
      <path
         inkscape:connector-curvature="0"
         transform="matrix(0.2,0,0,0.2,1.48,0.2)"
         style="fill:#ccf2fb;fill-opacity:1;fill-rule:evenodd;stroke:#ccf2fb;stroke-width:1.00000003pt;stroke-opacity:1"
         d="m -2.5,-1 c 0,2.76 -2.24,5 -5,5 -2.76,0 -5,-2.24 -5,-5 0,-2.76 2.24,-5 5,-5 2.76,0 5,2.24 5,5 z"
         id="path2286-6" />
    </marker>
    <filter
       inkscape:collect="always"
       style="color-interpolation-filters:sRGB"
       id="filter2762-7"
       x="-0.070451282"
       width="1.1409026"
       y="-0.11168265"
       height="1.2233653">
      <feGaussianBlur
         inkscape:collect="always"
         stdDeviation="4.9352244"
         id="feGaussianBlur2764-7" />
    </filter>
    <marker
       inkscape:stockid="DotS"
       orient="auto"
       refY="0"
       refX="0"
       id="DotS-4"
       style="overflow:visible"
       inkscape:isstock="true"
       inkscape:collect="always">
      <path
         inkscape:connector-curvature="0"
         id="path1033-9"
         d="m -2.5,-1 c 0,2.76 -2.24,5 -5,5 -2.76,0 -5,-2.24 -5,-5 0,-2.76 2.24,-5 5,-5 2.76,0 5,2.24 5,5 z"
         style="fill:#ccf2fb;fill-opacity:1;fill-rule:evenodd;stroke:#ccf2fb;stroke-width:1.00000003pt;stroke-opacity:1"
         transform="matrix(0.2,0,0,0.2,1.48,0.2)" />
    </marker>
    <marker
       inkscape:stockid="DotS"
       orient="auto"
       refY="0"
       refX="0"
       id="marker1312-9"
       style="overflow:visible"
       inkscape:isstock="true"
       inkscape:collect="always">
      <path
         inkscape:connector-curvature="0"
         id="path1310-8"
         d="m -2.5,-1 c 0,2.76 -2.24,5 -5,5 -2.76,0 -5,-2.24 -5,-5 0,-2.76 2.24,-5 5,-5 2.76,0 5,2.24 5,5 z"
         style="fill:#ccf2fb;fill-opacity:1;fill-rule:evenodd;stroke:#ccf2fb;stroke-width:1.00000003pt;stroke-opacity:1"
         transform="matrix(0.2,0,0,0.2,1.48,0.2)" />
    </marker>
    <filter
       inkscape:collect="always"
       style="color-interpolation-filters:sRGB"
       id="filter3400-8"
       x="-0.031519145"
       width="1.0630383"
       y="-0.43728191"
       height="1.8745638">
      <feGaussianBlur
         inkscape:collect="always"
         stdDeviation="3.2336304"
         id="feGaussianBlur3402-1" />
    </filter>
    <meshgradient
       inkscape:collect="always"
       id="meshgradient3883"
       gradientUnits="userSpaceOnUse"
       gradientTransform="matrix(0.81564255,0,0,0.68534901,585.389,20.780483)"
       x="-194.27975"
       y="21.077377">
      <meshrow
         id="meshrow3895">
        <meshpatch
           id="meshpatch3893">
          <stop
             id="stop3885"
             style="stop-color:#00aad4;stop-opacity:1"
             path="c 90.2103,0  180.421,0  270.631,0" />
          <stop
             id="stop3887"
             style="stop-color:#0065d4;stop-opacity:1"
             path="c 0,62.4652  0,124.93  0,187.396" />
          <stop
             id="stop3889"
             style="stop-color:#00d446;stop-opacity:1"
             path="c -90.2103,0  -180.421,0  -270.631,0" />
          <stop
             id="stop3891"
             style="stop-color:#7900d4;stop-opacity:1"
             path="c 0,-62.4652  0,-124.93  0,-187.396" />
        </meshpatch>
      </meshrow>
    </meshgradient>
    <meshgradient
       inkscape:collect="always"
       id="meshgradient3897"
       gradientUnits="userSpaceOnUse"
       gradientTransform="matrix(0.81564255,0,0,0.68534901,565.80971,3.3179761)"
       x="-194.27975"
       y="21.077377">
      <meshrow
         id="meshrow3909">
        <meshpatch
           id="meshpatch3907">
          <stop
             id="stop3899"
             style="stop-color:#00aad4;stop-opacity:1"
             path="c 90.2103,0  180.421,0  270.631,0" />
          <stop
             id="stop3901"
             style="stop-color:#0065d4;stop-opacity:1"
             path="c 0,62.4652  0,124.93  0,187.396" />
          <stop
             id="stop3903"
             style="stop-color:#00d446;stop-opacity:1"
             path="c -90.2103,0  -180.421,0  -270.631,0" />
          <stop
             id="stop3905"
             style="stop-color:#7900d4;stop-opacity:1"
             path="c 0,-62.4652  0,-124.93  0,-187.396" />
        </meshpatch>
      </meshrow>
    </meshgradient>
    <meshgradient
       inkscape:collect="always"
       id="meshgradient3950"
       gradientUnits="userSpaceOnUse"
       gradientTransform="matrix(0.81564255,0,0,0.68534901,-10.870505,36.114146)"
       x="-194.27975"
       y="21.077377">
      <meshrow
         id="meshrow3962">
        <meshpatch
           id="meshpatch3960">
          <stop
             id="stop3952"
             style="stop-color:#00aad4;stop-opacity:1"
             path="c 90.2103,0  180.421,0  270.631,0" />
          <stop
             id="stop3954"
             style="stop-color:#0065d4;stop-opacity:1"
             path="c 0,62.4652  0,124.93  0,187.396" />
          <stop
             id="stop3956"
             style="stop-color:#00d446;stop-opacity:1"
             path="c -90.2103,0  -180.421,0  -270.631,0" />
          <stop
             id="stop3958"
             style="stop-color:#7900d4;stop-opacity:1"
             path="c 0,-62.4652  0,-124.93  0,-187.396" />
        </meshpatch>
      </meshrow>
    </meshgradient>
    <meshgradient
       inkscape:collect="always"
       id="meshgradient3964"
       gradientUnits="userSpaceOnUse"
       gradientTransform="matrix(0.81564255,0,0,0.68534901,-10.870505,36.114146)"
       x="-194.27975"
       y="21.077377">
      <meshrow
         id="meshrow3976">
        <meshpatch
           id="meshpatch3974">
          <stop
             id="stop3966"
             style="stop-color:#00aad4;stop-opacity:1"
             path="c 90.2103,0  180.421,0  270.631,0" />
          <stop
             id="stop3968"
             style="stop-color:#0065d4;stop-opacity:1"
             path="c 0,62.4652  0,124.93  0,187.396" />
          <stop
             id="stop3970"
             style="stop-color:#00d446;stop-opacity:1"
             path="c -90.2103,0  -180.421,0  -270.631,0" />
          <stop
             id="stop3972"
             style="stop-color:#7900d4;stop-opacity:1"
             path="c 0,-62.4652  0,-124.93  0,-187.396" />
        </meshpatch>
      </meshrow>
    </meshgradient>
    <filter
       inkscape:collect="always"
       style="color-interpolation-filters:sRGB"
       id="filter4476"
       x="-0.011924649"
       width="1.0238493"
       y="-0.070525329"
       height="1.1410507">
      <feGaussianBlur
         inkscape:collect="always"
         stdDeviation="0.76139327"
         id="feGaussianBlur4478" />
    </filter>
  </defs>
  <sodipodi:namedview
     id="base"
     pagecolor="#ffffff"
     bordercolor="#666666"
     borderopacity="1.0"
     inkscape:pageopacity="0.0"
     inkscape:pageshadow="2"
     inkscape:zoom="0.061871843"
     inkscape:cx="3924.5664"
     inkscape:cy="417.49968"
     inkscape:document-units="mm"
     inkscape:current-layer="layer1"
     showgrid="false"
     inkscape:window-width="1366"
     inkscape:window-height="745"
     inkscape:window-x="-8"
     inkscape:window-y="-8"
     inkscape:window-maximized="1" />
  <metadata
     id="metadata5">
    <rdf:RDF>
      <cc:Work
         rdf:about="">
        <dc:format>image/svg+xml</dc:format>
        <dc:type
           rdf:resource="http://purl.org/dc/dcmitype/StillImage" />
        <dc:title></dc:title>
      </cc:Work>
    </rdf:RDF>
  </metadata>
  <g
     inkscape:label="Layer 1"
     inkscape:groupmode="layer"
     id="layer1">
    <g
       id="g4060"
       transform="matrix(0.35962673,0,0,0.35962673,-66.354773,15.132253)">
      <path
         id="rect959"
         d="m 235.85715,62.654762 h 92.22619 v 80.130948 h -92.22619 z"
         style="opacity:1;fill:#ccf2fb;fill-opacity:1;stroke:none;stroke-width:5.29200029;stroke-linecap:round;stroke-linejoin:round;stroke-miterlimit:4;stroke-dasharray:31.7519996, 31.7519996;stroke-dashoffset:0;stroke-opacity:1"
         inkscape:connector-curvature="0" />
      <path
         sodipodi:nodetypes="cc"
         inkscape:connector-curvature="0"
         id="path962"
         d="m 235.85715,142.78571 c 92.22619,0 0,-80.130948 92.22618,-80.130949"
         style="fill:none;stroke:#000000;stroke-width:0.26458332px;stroke-linecap:butt;stroke-linejoin:miter;stroke-opacity:1" />
    </g>
    <g
       id="g4101"
       transform="matrix(0.35962673,0,0,0.35962673,-121.71832,-69.066474)">
      <rect
         style="opacity:1;fill:#a8d7f8;fill-opacity:1;stroke:none;stroke-width:7.66189766;stroke-linecap:round;stroke-linejoin:round;stroke-miterlimit:4;stroke-dasharray:45.97137978, 45.97137978;stroke-dashoffset:0;stroke-opacity:1"
         id="rect817"
         width="285.15521"
         height="208.40123"
         x="-96.005951"
         y="13.517856"
         ry="12.607126" />
      <rect
         style="opacity:0.306;fill:url(#meshgradient3950);fill-opacity:1;stroke:none;stroke-width:5.29200125;stroke-linecap:round;stroke-linejoin:round;stroke-miterlimit:4;stroke-dasharray:31.75200486, 31.75200486;stroke-dashoffset:0;stroke-opacity:1;filter:url(#filter905)"
         id="rect819"
         width="220.73811"
         height="128.43149"
         x="-169.33334"
         y="50.559502"
         ry="12.095242" />
      <rect
         ry="12.095242"
         y="50.559502"
         x="-169.33334"
         height="128.43149"
         width="220.73811"
         id="rect909"
         style="opacity:0.306;fill:url(#meshgradient3964);fill-opacity:1;stroke:none;stroke-width:5.29200125;stroke-linecap:round;stroke-linejoin:round;stroke-miterlimit:4;stroke-dasharray:31.75200486, 31.75200486;stroke-dashoffset:0;stroke-opacity:1" />
      <path
         sodipodi:nodetypes="cc"
         inkscape:connector-curvature="0"
         id="path2250"
         d="m -143.78214,173.32137 c 92.22618,0 75.897634,-106.055309 168.123816,-106.055319"
         style="opacity:0.61799999;fill:none;fill-opacity:1;stroke:#ccf2fb;stroke-width:5;stroke-linecap:round;stroke-linejoin:round;stroke-miterlimit:4;stroke-dasharray:none;stroke-opacity:1;marker-start:url(#marker2254);marker-end:url(#marker2288);filter:url(#filter2762)" />
      <path
         style="fill:none;fill-opacity:1;stroke:#ccf2fb;stroke-width:5;stroke-linecap:round;stroke-linejoin:round;stroke-miterlimit:4;stroke-dasharray:none;stroke-opacity:1;marker-start:url(#DotS);marker-end:url(#marker1312)"
         d="m -148.01547,165.38385 c 92.226177,0 75.897631,-106.055291 168.123813,-106.055301"
         id="path964"
         inkscape:connector-curvature="0"
         sodipodi:nodetypes="cc" />
      <text
         id="text3248"
         y="153.87627"
         x="-70.494049"
         style="font-style:normal;font-weight:normal;font-size:18.04053879px;line-height:1.25;font-family:sans-serif;letter-spacing:0px;word-spacing:0px;fill:#fbfdfe;fill-opacity:1;stroke:none;stroke-width:0.45101345"
         xml:space="preserve"><tspan
           style="font-style:normal;font-variant:normal;font-weight:bold;font-stretch:normal;font-size:18.82037354px;font-family:Lato;-inkscape-font-specification:'Lato Bold';fill:#fbfdfe;fill-opacity:1;stroke-width:0.45101345"
           y="153.87627"
           x="-70.494049"
           id="tspan3246"
           sodipodi:role="line">cubic-bezier(.76,.08,.26,1.34);</tspan></text>
      <g
         aria-label="cubic-bezier(.76,.08,.26,1.34);"
         style="font-style:normal;font-weight:normal;font-size:18.04053879px;line-height:1.25;font-family:sans-serif;letter-spacing:0px;word-spacing:0px;opacity:0.769;fill:#d1e8f4;fill-opacity:1;stroke:none;stroke-width:0.45101345;filter:url(#filter3400)"
         id="text3327">
        <path
           d="m -62.46716,146.26343 q -0.103512,0.13174 -0.207024,0.20702 -0.0941,0.0753 -0.282305,0.0753 -0.178794,0 -0.348177,-0.10351 -0.169384,-0.11292 -0.404638,-0.24467 -0.235255,-0.14115 -0.564612,-0.24466 -0.319946,-0.11292 -0.799865,-0.11292 -0.611663,0 -1.072762,0.22584 -0.461099,0.21644 -0.771635,0.63048 -0.301126,0.41405 -0.451689,1.00689 -0.150563,0.58344 -0.150563,1.32684 0,0.77164 0.159973,1.37389 0.169383,0.60225 0.47992,1.0163 0.310536,0.40464 0.752815,0.62107 0.442278,0.20702 0.997479,0.20702 0.555201,0 0.893968,-0.13174 0.348177,-0.14115 0.583432,-0.30112 0.235254,-0.16939 0.404638,-0.30113 0.178793,-0.14115 0.395228,-0.14115 0.282305,0 0.423458,0.21643 l 0.668123,0.84692 q -0.385817,0.45169 -0.837506,0.76222 -0.451689,0.30113 -0.941019,0.48933 -0.47992,0.1788 -0.99748,0.25408 -0.51756,0.0753 -1.02571,0.0753 -0.893968,0 -1.684424,-0.32936 -0.790455,-0.33876 -1.383297,-0.97866 -0.583432,-0.63989 -0.931609,-1.56209 -0.338766,-0.93161 -0.338766,-2.11729 0,-1.06335 0.301126,-1.96673 0.310536,-0.91279 0.903378,-1.5715 0.592841,-0.66812 1.467989,-1.04453 0.875147,-0.37641 2.01378,-0.37641 1.082171,0 1.891447,0.34818 0.818686,0.34818 1.467989,0.99748 z"
           style="font-style:normal;font-variant:normal;font-weight:bold;font-stretch:normal;font-size:18.82037354px;font-family:Lato;-inkscape-font-specification:'Lato Bold';fill:#d1e8f4;fill-opacity:1;stroke-width:0.45101345"
           id="path3329"
           inkscape:connector-curvature="0" />
        <path
           d="m -58.156118,144.22141 v 6.13545 q 0,0.88455 0.404638,1.37388 0.414048,0.47992 1.232734,0.47992 0.602252,0 1.129222,-0.26348 0.526971,-0.2729 0.99748,-0.74341 v -6.98236 h 2.324316 v 9.65486 h -1.420938 q -0.451689,0 -0.592842,-0.42346 l -0.159973,-0.77164 q -0.301126,0.30113 -0.621072,0.5552 -0.319946,0.24467 -0.686944,0.42346 -0.357587,0.16939 -0.781045,0.26349 -0.414048,0.10351 -0.893968,0.10351 -0.790456,0 -1.402118,-0.26349 -0.602252,-0.27289 -1.0163,-0.76222 -0.414048,-0.48933 -0.630482,-1.15745 -0.207025,-0.67754 -0.207025,-1.48681 v -6.13545 z"
           style="font-style:normal;font-variant:normal;font-weight:bold;font-stretch:normal;font-size:18.82037354px;font-family:Lato;-inkscape-font-specification:'Lato Bold';fill:#d1e8f4;fill-opacity:1;stroke-width:0.45101345"
           id="path3331"
           inkscape:connector-curvature="0" />
        <path
           d="m -49.557855,153.87627 v -13.98354 h 2.324316 v 5.51437 q 0.574022,-0.61166 1.298606,-0.96925 0.724585,-0.367 1.693834,-0.367 0.790456,0 1.439758,0.32936 0.658713,0.31994 1.129223,0.94102 0.479919,0.62107 0.733994,1.53386 0.263486,0.91279 0.263486,2.09847 0,1.08217 -0.291716,2.00437 -0.291716,0.9222 -0.837507,1.59973 -0.53638,0.67753 -1.308016,1.06335 -0.762225,0.37641 -1.712654,0.37641 -0.442279,0 -0.809276,-0.0941 -0.366997,-0.0847 -0.668123,-0.24467 -0.301126,-0.15997 -0.564611,-0.38582 -0.254075,-0.23525 -0.48933,-0.51756 l -0.103512,0.64931 q -0.05646,0.24466 -0.197614,0.34817 -0.131743,0.10352 -0.366997,0.10352 z m 4.51689,-7.99866 q -0.724584,0 -1.242145,0.31053 -0.50815,0.30113 -0.950429,0.85633 v 4.32869 q 0.395228,0.48933 0.856327,0.68694 0.47051,0.1882 1.016301,0.1882 0.52697,0 0.950428,-0.19761 0.423459,-0.19761 0.715175,-0.60225 0.301126,-0.40464 0.461099,-1.0163 0.159973,-0.62107 0.159973,-1.45858 0,-0.84692 -0.141153,-1.43035 -0.131742,-0.59284 -0.385817,-0.95984 -0.254076,-0.367 -0.621073,-0.53638 -0.357587,-0.16938 -0.818686,-0.16938 z"
           style="font-style:normal;font-variant:normal;font-weight:bold;font-stretch:normal;font-size:18.82037354px;font-family:Lato;-inkscape-font-specification:'Lato Bold';fill:#d1e8f4;fill-opacity:1;stroke-width:0.45101345"
           id="path3333"
           inkscape:connector-curvature="0" />
        <path
           d="m -36.377712,144.22141 v 9.65486 h -2.324316 v -9.65486 z m 0.348177,-2.81364 q 0,0.30112 -0.122333,0.56461 -0.122332,0.26349 -0.329356,0.4611 -0.197614,0.19761 -0.47051,0.31995 -0.272895,0.11292 -0.583431,0.11292 -0.301126,0 -0.574022,-0.11292 -0.263485,-0.12234 -0.461099,-0.31995 -0.197614,-0.19761 -0.319946,-0.4611 -0.112922,-0.26349 -0.112922,-0.56461 0,-0.31054 0.112922,-0.58343 0.122332,-0.2729 0.319946,-0.47051 0.197614,-0.19762 0.461099,-0.31054 0.272896,-0.12233 0.574022,-0.12233 0.310536,0 0.583431,0.12233 0.272896,0.11292 0.47051,0.31054 0.207024,0.19761 0.329356,0.47051 0.122333,0.27289 0.122333,0.58343 z"
           style="font-style:normal;font-variant:normal;font-weight:bold;font-stretch:normal;font-size:18.82037354px;font-family:Lato;-inkscape-font-specification:'Lato Bold';fill:#d1e8f4;fill-opacity:1;stroke-width:0.45101345"
           id="path3335"
           inkscape:connector-curvature="0" />
        <path
           d="m -26.958409,146.26343 q -0.103512,0.13174 -0.207024,0.20702 -0.0941,0.0753 -0.282306,0.0753 -0.178793,0 -0.348176,-0.10351 -0.169384,-0.11292 -0.404638,-0.24467 -0.235255,-0.14115 -0.564612,-0.24466 -0.319946,-0.11292 -0.799866,-0.11292 -0.611662,0 -1.072761,0.22584 -0.461099,0.21644 -0.771635,0.63048 -0.301126,0.41405 -0.451689,1.00689 -0.150563,0.58344 -0.150563,1.32684 0,0.77164 0.159973,1.37389 0.169383,0.60225 0.47992,1.0163 0.310536,0.40464 0.752815,0.62107 0.442278,0.20702 0.997479,0.20702 0.555201,0 0.893968,-0.13174 0.348177,-0.14115 0.583432,-0.30112 0.235254,-0.16939 0.404638,-0.30113 0.178793,-0.14115 0.395227,-0.14115 0.282306,0 0.423459,0.21643 l 0.668123,0.84692 q -0.385817,0.45169 -0.837506,0.76222 -0.451689,0.30113 -0.941019,0.48933 -0.47992,0.1788 -0.99748,0.25408 -0.51756,0.0753 -1.02571,0.0753 -0.893968,0 -1.684424,-0.32936 -0.790455,-0.33876 -1.383297,-0.97866 -0.583432,-0.63989 -0.931609,-1.56209 -0.338766,-0.93161 -0.338766,-2.11729 0,-1.06335 0.301126,-1.96673 0.310536,-0.91279 0.903378,-1.5715 0.592841,-0.66812 1.467989,-1.04453 0.875147,-0.37641 2.01378,-0.37641 1.082171,0 1.891447,0.34818 0.818686,0.34818 1.467989,0.99748 z"
           style="font-style:normal;font-variant:normal;font-weight:bold;font-stretch:normal;font-size:18.82037354px;font-family:Lato;-inkscape-font-specification:'Lato Bold';fill:#d1e8f4;fill-opacity:1;stroke-width:0.45101345"
           id="path3337"
           inkscape:connector-curvature="0" />
        <path
           d="m -25.075198,147.22326 h 4.874477 v 1.9385 h -4.874477 z"
           style="font-style:normal;font-variant:normal;font-weight:bold;font-stretch:normal;font-size:18.82037354px;font-family:Lato;-inkscape-font-specification:'Lato Bold';fill:#d1e8f4;fill-opacity:1;stroke-width:0.45101345"
           id="path3339"
           inkscape:connector-curvature="0" />
        <path
           d="m -17.982268,153.87627 v -13.98354 h 2.324316 v 5.51437 q 0.574021,-0.61166 1.298606,-0.96925 0.724584,-0.367 1.693833,-0.367 0.790456,0 1.439759,0.32936 0.658713,0.31994 1.129222,0.94102 0.4799197,0.62107 0.7339947,1.53386 0.2634852,0.91279 0.2634852,2.09847 0,1.08217 -0.2917158,2.00437 -0.2917157,0.9222 -0.8375061,1.59973 -0.536381,0.67753 -1.308016,1.06335 -0.762226,0.37641 -1.712654,0.37641 -0.442279,0 -0.809276,-0.0941 -0.366998,-0.0847 -0.668124,-0.24467 -0.301126,-0.15997 -0.564611,-0.38582 -0.254075,-0.23525 -0.48933,-0.51756 l -0.103512,0.64931 q -0.05646,0.24466 -0.197614,0.34817 -0.131742,0.10352 -0.366997,0.10352 z m 4.516889,-7.99866 q -0.724584,0 -1.242144,0.31053 -0.50815,0.30113 -0.950429,0.85633 v 4.32869 q 0.395228,0.48933 0.856327,0.68694 0.470509,0.1882 1.0163,0.1882 0.52697,0 0.950429,-0.19761 0.423458,-0.19761 0.715174,-0.60225 0.301126,-0.40464 0.461099,-1.0163 0.159973,-0.62107 0.159973,-1.45858 0,-0.84692 -0.141152,-1.43035 -0.131743,-0.59284 -0.385818,-0.95984 -0.254075,-0.367 -0.621072,-0.53638 -0.357588,-0.16938 -0.818687,-0.16938 z"
           style="font-style:normal;font-variant:normal;font-weight:bold;font-stretch:normal;font-size:18.82037354px;font-family:Lato;-inkscape-font-specification:'Lato Bold';fill:#d1e8f4;fill-opacity:1;stroke-width:0.45101345"
           id="path3341"
           inkscape:connector-curvature="0" />
        <path
           d="m -3.2870859,144.07085 q 0.9127881,0 1.6750132,0.29172 0.77163532,0.29171 1.32683634,0.85632 0.55520102,0.55521 0.86573718,1.37389 0.31053617,0.80928 0.31053617,1.85381 0,0.26348 -0.0282306,0.44228 -0.0188204,0.16938 -0.0846917,0.27289 -0.0564611,0.0941 -0.15997318,0.14116 -0.10351205,0.0376 -0.26348523,0.0376 H -5.6114021 q 0.1035121,1.48681 0.7998659,2.18316 0.6963538,0.69635 1.8443966,0.69635 0.5646112,0 0.9692492,-0.13174 0.4140483,-0.13174 0.7151742,-0.29171 0.31053621,-0.15998 0.53638069,-0.29172 0.23525467,-0.13174 0.45168896,-0.13174 0.14115281,0 0.24466486,0.0565 0.10351205,0.0565 0.17879355,0.15997 l 0.67753345,0.84692 q -0.38581766,0.45169 -0.86573719,0.76222 -0.47991952,0.30113 -1.00689002,0.48933 -0.5175602,0.1788 -1.0633511,0.25408 -0.5363806,0.0753 -1.0445307,0.0753 -1.00689,0 -1.8726272,-0.32936 -0.8657371,-0.33876 -1.5056298,-0.98807 -0.6398927,-0.65871 -1.00689,-1.61855 -0.3669973,-0.96925 -0.3669973,-2.23962 0,-0.98807 0.3199463,-1.85381 0.3199464,-0.87515 0.9127882,-1.51504 0.6022519,-0.6493 1.4585789,-1.02571 0.8657372,-0.37641 1.9479087,-0.37641 z m 0.047051,1.6656 q -1.0163002,0 -1.5903216,0.57403 -0.5740214,0.57402 -0.7339945,1.62796 h 4.3663266 q 0,-0.45169 -0.1223324,-0.84692 -0.1223324,-0.40464 -0.3764075,-0.70576 -0.254075,-0.30113 -0.6398927,-0.47051 -0.3858176,-0.1788 -0.9033779,-0.1788 z"
           style="font-style:normal;font-variant:normal;font-weight:bold;font-stretch:normal;font-size:18.82037354px;font-family:Lato;-inkscape-font-specification:'Lato Bold';fill:#d1e8f4;fill-opacity:1;stroke-width:0.45101345"
           id="path3343"
           inkscape:connector-curvature="0" />
        <path
           d="m 9.7771918,145.18125 q 0,0.24467 -0.094102,0.47992 -0.084692,0.22585 -0.2070241,0.38582 l -4.5921712,6.04134 H 9.645449 v 1.78794 H 2.1831711 v -0.96925 q 0,-0.15998 0.075282,-0.37641 0.075282,-0.22584 0.2352547,-0.42346 l 4.6298119,-6.10721 H 2.4560665 v -1.77853 h 7.3211253 z"
           style="font-style:normal;font-variant:normal;font-weight:bold;font-stretch:normal;font-size:18.82037354px;font-family:Lato;-inkscape-font-specification:'Lato Bold';fill:#d1e8f4;fill-opacity:1;stroke-width:0.45101345"
           id="path3345"
           inkscape:connector-curvature="0" />
        <path
           d="m 14.091764,144.22141 v 9.65486 h -2.324316 v -9.65486 z m 0.348177,-2.81364 q 0,0.30112 -0.122332,0.56461 -0.122333,0.26349 -0.329357,0.4611 -0.197614,0.19761 -0.470509,0.31995 -0.272895,0.11292 -0.583432,0.11292 -0.301126,0 -0.574021,-0.11292 -0.263485,-0.12234 -0.461099,-0.31995 -0.197614,-0.19761 -0.319946,-0.4611 -0.112923,-0.26349 -0.112923,-0.56461 0,-0.31054 0.112923,-0.58343 0.122332,-0.2729 0.319946,-0.47051 0.197614,-0.19762 0.461099,-0.31054 0.272895,-0.12233 0.574021,-0.12233 0.310537,0 0.583432,0.12233 0.272895,0.11292 0.470509,0.31054 0.207024,0.19761 0.329357,0.47051 0.122332,0.27289 0.122332,0.58343 z"
           style="font-style:normal;font-variant:normal;font-weight:bold;font-stretch:normal;font-size:18.82037354px;font-family:Lato;-inkscape-font-specification:'Lato Bold';fill:#d1e8f4;fill-opacity:1;stroke-width:0.45101345"
           id="path3347"
           inkscape:connector-curvature="0" />
        <path
           d="m 20.71624,144.07085 q 0.912789,0 1.675014,0.29172 0.771635,0.29171 1.326836,0.85632 0.555201,0.55521 0.865737,1.37389 0.310536,0.80928 0.310536,1.85381 0,0.26348 -0.02823,0.44228 -0.01882,0.16938 -0.08469,0.27289 -0.05646,0.0941 -0.159973,0.14116 -0.103512,0.0376 -0.263485,0.0376 h -5.966059 q 0.103512,1.48681 0.799866,2.18316 0.696354,0.69635 1.844397,0.69635 0.564611,0 0.969249,-0.13174 0.414048,-0.13174 0.715174,-0.29171 0.310536,-0.15998 0.536381,-0.29172 0.235255,-0.13174 0.451689,-0.13174 0.141153,0 0.244665,0.0565 0.103512,0.0565 0.178793,0.15997 l 0.677534,0.84692 q -0.385818,0.45169 -0.865737,0.76222 -0.47992,0.30113 -1.00689,0.48933 -0.517561,0.1788 -1.063352,0.25408 -0.53638,0.0753 -1.04453,0.0753 -1.00689,0 -1.872627,-0.32936 -0.865738,-0.33876 -1.50563,-0.98807 -0.639893,-0.65871 -1.00689,-1.61855 -0.366998,-0.96925 -0.366998,-2.23962 0,-0.98807 0.319947,-1.85381 0.319946,-0.87515 0.912788,-1.51504 0.602252,-0.6493 1.458579,-1.02571 0.865737,-0.37641 1.947908,-0.37641 z m 0.04705,1.6656 q -1.0163,0 -1.590321,0.57403 -0.574022,0.57402 -0.733995,1.62796 h 4.366327 q 0,-0.45169 -0.122332,-0.84692 -0.122333,-0.40464 -0.376408,-0.70576 -0.254075,-0.30113 -0.639893,-0.47051 -0.385817,-0.1788 -0.903378,-0.1788 z"
           style="font-style:normal;font-variant:normal;font-weight:bold;font-stretch:normal;font-size:18.82037354px;font-family:Lato;-inkscape-font-specification:'Lato Bold';fill:#d1e8f4;fill-opacity:1;stroke-width:0.45101345"
           id="path3349"
           inkscape:connector-curvature="0" />
        <path
           d="m 26.79816,153.87627 v -9.65486 h 1.364477 q 0.357587,0 0.49874,0.13175 0.141152,0.13174 0.188203,0.45169 l 0.141153,1.16686 q 0.51756,-0.89397 1.213914,-1.41153 0.696354,-0.51756 1.562091,-0.51756 0.715174,0 1.185684,0.32936 l -0.301126,1.74088 q -0.02823,0.16939 -0.122333,0.24467 -0.0941,0.0659 -0.254075,0.0659 -0.141152,0 -0.385817,-0.0659 -0.244665,-0.0659 -0.649303,-0.0659 -0.724585,0 -1.242145,0.40463 -0.51756,0.39523 -0.875147,1.16687 v 6.01311 z"
           style="font-style:normal;font-variant:normal;font-weight:bold;font-stretch:normal;font-size:18.82037354px;font-family:Lato;-inkscape-font-specification:'Lato Bold';fill:#d1e8f4;fill-opacity:1;stroke-width:0.45101345"
           id="path3351"
           inkscape:connector-curvature="0" />
        <path
           d="m 36.249816,147.97608 q 0,1.9385 0.470509,3.81113 0.470509,1.87262 1.345657,3.5194 0.06587,0.12234 0.08469,0.22585 0.02823,0.10351 0.02823,0.1882 0,0.18821 -0.0941,0.30113 -0.0941,0.12233 -0.225844,0.19761 l -1.035121,0.63049 q -0.696354,-1.07277 -1.185683,-2.15494 -0.48933,-1.08217 -0.799866,-2.18316 -0.310537,-1.10099 -0.461099,-2.23021 -0.141153,-1.12923 -0.141153,-2.3055 0,-1.17627 0.141153,-2.3055 0.150562,-1.13863 0.461099,-2.23962 0.310536,-1.10099 0.799866,-2.17375 0.489329,-1.08218 1.185683,-2.15494 l 1.035121,0.62108 q 0.131742,0.0753 0.225844,0.19761 0.0941,0.11292 0.0941,0.29172 0,0.17879 -0.122332,0.42345 -0.865738,1.64679 -1.336247,3.52882 -0.470509,1.87263 -0.470509,3.81113 z"
           style="font-style:normal;font-variant:normal;font-weight:bold;font-stretch:normal;font-size:18.82037354px;font-family:Lato;-inkscape-font-specification:'Lato Bold';fill:#d1e8f4;fill-opacity:1;stroke-width:0.45101345"
           id="path3353"
           inkscape:connector-curvature="0" />
        <path
           d="m 39.586312,152.59648 q 0,-0.29171 0.103512,-0.5552 0.112922,-0.26349 0.301126,-0.45169 0.197614,-0.1882 0.461099,-0.30112 0.263485,-0.11293 0.564611,-0.11293 0.291716,0 0.555201,0.11293 0.263486,0.11292 0.451689,0.30112 0.188204,0.1882 0.301126,0.45169 0.112923,0.26349 0.112923,0.5552 0,0.30113 -0.112923,0.56461 -0.112922,0.25408 -0.301126,0.44228 -0.188203,0.1882 -0.451689,0.29172 -0.263485,0.11292 -0.555201,0.11292 -0.301126,0 -0.564611,-0.11292 -0.263485,-0.10352 -0.461099,-0.29172 -0.188204,-0.1882 -0.301126,-0.44228 -0.103512,-0.26348 -0.103512,-0.56461 z"
           style="font-style:normal;font-variant:normal;font-weight:bold;font-stretch:normal;font-size:18.82037354px;font-family:Lato;-inkscape-font-specification:'Lato Bold';fill:#d1e8f4;fill-opacity:1;stroke-width:0.45101345"
           id="path3355"
           inkscape:connector-curvature="0" />
        <path
           d="m 53.440167,140.26914 v 1.00689 q 0,0.45169 -0.103512,0.73399 -0.0941,0.2729 -0.188204,0.4611 l -5.147372,10.61469 q -0.159973,0.32936 -0.451689,0.56461 -0.291716,0.22585 -0.790456,0.22585 h -1.684423 l 5.269704,-10.39826 q 0.329357,-0.63989 0.733995,-1.10099 h -6.511849 q -0.216435,0 -0.376408,-0.15997 -0.159973,-0.15998 -0.159973,-0.37641 v -1.5715 z"
           style="font-style:normal;font-variant:normal;font-weight:bold;font-stretch:normal;font-size:18.82037354px;font-family:Lato;-inkscape-font-specification:'Lato Bold';fill:#d1e8f4;fill-opacity:1;stroke-width:0.45101345"
           id="path3357"
           inkscape:connector-curvature="0" />
        <path
           d="m 60.348717,145.37887 q 0.771635,0 1.49622,0.25407 0.733994,0.25408 1.289195,0.77164 0.555201,0.50815 0.893968,1.27037 0.338767,0.76223 0.338767,1.77853 0,0.95043 -0.348177,1.78793 -0.348177,0.8281 -0.97866,1.44917 -0.630482,0.62108 -1.52445,0.97866 -0.884557,0.35759 -1.957319,0.35759 -1.091581,0 -1.957318,-0.34818 -0.865738,-0.34817 -1.4774,-0.96925 -0.611662,-0.63048 -0.941018,-1.50563 -0.319947,-0.88455 -0.319947,-1.95732 0,-0.95983 0.385818,-1.96672 0.395228,-1.0163 1.213914,-2.10789 l 3.246514,-4.35691 q 0.169384,-0.22585 0.48933,-0.38582 0.329357,-0.15997 0.752815,-0.15997 h 2.070241 l -4.03697,4.94034 q -0.131743,0.15998 -0.254075,0.30113 -0.112922,0.14115 -0.225845,0.29172 0.395228,-0.19762 0.846917,-0.31054 0.461099,-0.11292 0.99748,-0.11292 z m -3.255925,4.22517 q 0,0.56461 0.150563,1.03512 0.159974,0.4611 0.4611,0.79046 0.310536,0.32935 0.762225,0.51756 0.451689,0.17879 1.04453,0.17879 0.555201,0 1.016301,-0.1882 0.470509,-0.18821 0.799865,-0.52697 0.338767,-0.33877 0.526971,-0.79046 0.188204,-0.4611 0.188204,-0.99748 0,-0.58343 -0.178794,-1.04453 -0.178793,-0.47051 -0.50815,-0.79045 -0.329357,-0.32936 -0.790456,-0.49874 -0.461099,-0.16939 -1.0163,-0.16939 -0.555201,0 -1.00689,0.18821 -0.451689,0.1882 -0.781045,0.52697 -0.319947,0.32935 -0.49874,0.79045 -0.169384,0.45169 -0.169384,0.97866 z"
           style="font-style:normal;font-variant:normal;font-weight:bold;font-stretch:normal;font-size:18.82037354px;font-family:Lato;-inkscape-font-specification:'Lato Bold';fill:#d1e8f4;fill-opacity:1;stroke-width:0.45101345"
           id="path3359"
           inkscape:connector-curvature="0" />
        <path
           d="m 65.713997,152.44592 q 0,-0.26349 0.0941,-0.48933 0.103513,-0.23526 0.282306,-0.40464 0.178794,-0.17879 0.432869,-0.2729 0.254075,-0.10351 0.555201,-0.10351 0.357587,0 0.621072,0.13175 0.263485,0.12233 0.442279,0.34817 0.178793,0.21644 0.263485,0.50815 0.08469,0.28231 0.08469,0.60225 0,0.45169 -0.141153,0.95043 -0.131743,0.49874 -0.395228,0.99748 -0.263485,0.49874 -0.649303,0.96925 -0.385818,0.47051 -0.884557,0.86574 l -0.404638,-0.367 q -0.169384,-0.14115 -0.169384,-0.34817 0,-0.0753 0.04705,-0.16939 0.05646,-0.0941 0.131743,-0.16938 0.103512,-0.11292 0.254075,-0.28231 0.150563,-0.15997 0.301126,-0.3764 0.150563,-0.20703 0.272895,-0.4611 0.131743,-0.24467 0.188204,-0.52697 -0.291716,0 -0.536381,-0.10352 -0.244665,-0.11292 -0.423458,-0.30112 -0.169383,-0.18821 -0.272896,-0.44228 -0.0941,-0.25408 -0.0941,-0.5552 z"
           style="font-style:normal;font-variant:normal;font-weight:bold;font-stretch:normal;font-size:18.82037354px;font-family:Lato;-inkscape-font-specification:'Lato Bold';fill:#d1e8f4;fill-opacity:1;stroke-width:0.45101345"
           id="path3361"
           inkscape:connector-curvature="0" />
        <path
           d="m 69.875359,152.59648 q 0,-0.29171 0.103512,-0.5552 0.112922,-0.26349 0.301126,-0.45169 0.197614,-0.1882 0.461099,-0.30112 0.263486,-0.11293 0.564612,-0.11293 0.291715,0 0.555201,0.11293 0.263485,0.11292 0.451689,0.30112 0.188203,0.1882 0.301126,0.45169 0.112922,0.26349 0.112922,0.5552 0,0.30113 -0.112922,0.56461 -0.112923,0.25408 -0.301126,0.44228 -0.188204,0.1882 -0.451689,0.29172 -0.263486,0.11292 -0.555201,0.11292 -0.301126,0 -0.564612,-0.11292 -0.263485,-0.10352 -0.461099,-0.29172 -0.188204,-0.1882 -0.301126,-0.44228 -0.103512,-0.26348 -0.103512,-0.56461 z"
           style="font-style:normal;font-variant:normal;font-weight:bold;font-stretch:normal;font-size:18.82037354px;font-family:Lato;-inkscape-font-specification:'Lato Bold';fill:#d1e8f4;fill-opacity:1;stroke-width:0.45101345"
           id="path3363"
           inkscape:connector-curvature="0" />
        <path
           d="m 83.860941,147.0727 q 0,1.77853 -0.385817,3.09595 -0.376408,1.30802 -1.053941,2.16435 -0.668123,0.85632 -1.590322,1.27978 -0.912788,0.41405 -1.976139,0.41405 -1.063351,0 -1.976139,-0.41405 -0.903378,-0.42346 -1.571501,-1.27978 -0.668124,-0.85633 -1.044531,-2.16435 -0.376408,-1.31742 -0.376408,-3.09595 0,-1.78793 0.376408,-3.09595 0.376407,-1.30802 1.044531,-2.16434 0.668123,-0.85633 1.571501,-1.27038 0.912788,-0.42346 1.976139,-0.42346 1.063351,0 1.976139,0.42346 0.922199,0.41405 1.590322,1.27038 0.677533,0.85632 1.053941,2.16434 0.385817,1.30802 0.385817,3.09595 z m -2.399597,0 q 0,-1.4774 -0.216434,-2.44665 -0.216435,-0.96925 -0.583432,-1.54327 -0.357587,-0.57402 -0.828096,-0.79986 -0.47051,-0.23526 -0.97866,-0.23526 -0.49874,0 -0.969249,0.23526 -0.461099,0.22584 -0.818686,0.79986 -0.357587,0.57402 -0.574022,1.54327 -0.207024,0.96925 -0.207024,2.44665 0,1.4774 0.207024,2.44665 0.216435,0.96925 0.574022,1.54327 0.357587,0.57402 0.818686,0.80928 0.470509,0.22584 0.969249,0.22584 0.50815,0 0.97866,-0.22584 0.470509,-0.23526 0.828096,-0.80928 0.366997,-0.57402 0.583432,-1.54327 0.216434,-0.96925 0.216434,-2.44665 z"
           style="font-style:normal;font-variant:normal;font-weight:bold;font-stretch:normal;font-size:18.82037354px;font-family:Lato;-inkscape-font-specification:'Lato Bold';fill:#d1e8f4;fill-opacity:1;stroke-width:0.45101345"
           id="path3365"
           inkscape:connector-curvature="0" />
        <path
           d="m 89.79084,154.02683 q -1.053941,0 -1.929088,-0.28231 -0.865738,-0.2823 -1.48681,-0.79986 -0.621072,-0.51756 -0.969249,-1.25156 -0.338767,-0.73399 -0.338767,-1.63737 0,-1.2045 0.592842,-2.0326 0.592842,-0.83751 1.844396,-1.24214 -0.997479,-0.41405 -1.496219,-1.17628 -0.48933,-0.76222 -0.48933,-1.83498 0,-0.77164 0.310536,-1.43976 0.319947,-0.66813 0.884558,-1.15746 0.564611,-0.49874 1.345656,-0.77163 0.790456,-0.28231 1.731475,-0.28231 0.941019,0 1.722064,0.28231 0.790456,0.27289 1.355067,0.77163 0.564611,0.48933 0.875147,1.15746 0.319947,0.66812 0.319947,1.43976 0,1.07276 -0.49874,1.83498 -0.49874,0.76223 -1.48681,1.17628 1.251555,0.40463 1.844397,1.24214 0.592842,0.8281 0.592842,2.0326 0,0.90338 -0.348177,1.63737 -0.338767,0.734 -0.959839,1.25156 -0.621073,0.51756 -1.49622,0.79986 -0.865737,0.28231 -1.919678,0.28231 z m 0,-1.81617 q 0.574021,0 1.00689,-0.15997 0.432868,-0.16938 0.724584,-0.4611 0.301126,-0.29171 0.451689,-0.69635 0.150563,-0.40464 0.150563,-0.87515 0,-1.11981 -0.621072,-1.69383 -0.621072,-0.57403 -1.712654,-0.57403 -1.091582,0 -1.712654,0.57403 -0.621072,0.57402 -0.621072,1.69383 0,0.47051 0.150563,0.87515 0.150563,0.40464 0.442278,0.69635 0.301126,0.29172 0.733995,0.4611 0.432868,0.15997 1.00689,0.15997 z m 0,-6.286 q 0.564611,0 0.950429,-0.17879 0.385817,-0.1788 0.621072,-0.47051 0.235255,-0.30113 0.329357,-0.67754 0.103512,-0.38582 0.103512,-0.79045 0,-0.38582 -0.122333,-0.734 -0.122332,-0.34817 -0.366997,-0.61166 -0.244665,-0.2729 -0.621072,-0.43287 -0.376408,-0.15997 -0.893968,-0.15997 -0.51756,0 -0.893968,0.15997 -0.376407,0.15997 -0.630482,0.43287 -0.244665,0.26349 -0.366998,0.61166 -0.112922,0.34818 -0.112922,0.734 0,0.40463 0.0941,0.79045 0.103512,0.37641 0.338767,0.67754 0.235254,0.29171 0.621072,0.47051 0.385818,0.17879 0.950429,0.17879 z"
           style="font-style:normal;font-variant:normal;font-weight:bold;font-stretch:normal;font-size:18.82037354px;font-family:Lato;-inkscape-font-specification:'Lato Bold';fill:#d1e8f4;fill-opacity:1;stroke-width:0.45101345"
           id="path3367"
           inkscape:connector-curvature="0" />
        <path
           d="m 96.003029,152.44592 q 0,-0.26349 0.0941,-0.48933 0.103512,-0.23526 0.282306,-0.40464 0.178794,-0.17879 0.432869,-0.2729 0.254075,-0.10351 0.555201,-0.10351 0.357587,0 0.621072,0.13175 0.263485,0.12233 0.442279,0.34817 0.178793,0.21644 0.263485,0.50815 0.08469,0.28231 0.08469,0.60225 0,0.45169 -0.141153,0.95043 -0.131743,0.49874 -0.395228,0.99748 -0.263485,0.49874 -0.649303,0.96925 -0.385818,0.47051 -0.884557,0.86574 l -0.404638,-0.367 q -0.169384,-0.14115 -0.169384,-0.34817 0,-0.0753 0.04705,-0.16939 0.05646,-0.0941 0.131743,-0.16938 0.103512,-0.11292 0.254075,-0.28231 0.150563,-0.15997 0.301126,-0.3764 0.150563,-0.20703 0.272895,-0.4611 0.131743,-0.24467 0.188204,-0.52697 -0.291716,0 -0.536381,-0.10352 -0.244665,-0.11292 -0.423458,-0.30112 -0.169384,-0.18821 -0.272896,-0.44228 -0.0941,-0.25408 -0.0941,-0.5552 z"
           style="font-style:normal;font-variant:normal;font-weight:bold;font-stretch:normal;font-size:18.82037354px;font-family:Lato;-inkscape-font-specification:'Lato Bold';fill:#d1e8f4;fill-opacity:1;stroke-width:0.45101345"
           id="path3369"
           inkscape:connector-curvature="0" />
        <path
           d="m 100.16439,152.59648 q 0,-0.29171 0.10351,-0.5552 0.11293,-0.26349 0.30113,-0.45169 0.19761,-0.1882 0.4611,-0.30112 0.26348,-0.11293 0.56461,-0.11293 0.29172,0 0.5552,0.11293 0.26349,0.11292 0.45169,0.30112 0.1882,0.1882 0.30113,0.45169 0.11292,0.26349 0.11292,0.5552 0,0.30113 -0.11292,0.56461 -0.11293,0.25408 -0.30113,0.44228 -0.1882,0.1882 -0.45169,0.29172 -0.26348,0.11292 -0.5552,0.11292 -0.30113,0 -0.56461,-0.11292 -0.26349,-0.10352 -0.4611,-0.29172 -0.1882,-0.1882 -0.30113,-0.44228 -0.10351,-0.26348 -0.10351,-0.56461 z"
           style="font-style:normal;font-variant:normal;font-weight:bold;font-stretch:normal;font-size:18.82037354px;font-family:Lato;-inkscape-font-specification:'Lato Bold';fill:#d1e8f4;fill-opacity:1;stroke-width:0.45101345"
           id="path3371"
           inkscape:connector-curvature="0" />
        <path
           d="m 109.36961,140.11857 q 0.94102,0 1.72207,0.28231 0.78104,0.27289 1.33624,0.78104 0.55521,0.50815 0.86574,1.22333 0.31054,0.71517 0.31054,1.59032 0,0.75282 -0.22585,1.39271 -0.21643,0.63989 -0.59284,1.22332 -0.367,0.58343 -0.86574,1.12922 -0.49874,0.5458 -1.04453,1.11041 l -3.06772,3.13359 q 0.45169,-0.13174 0.88456,-0.19761 0.43287,-0.0753 0.8281,-0.0753 h 3.49118 q 0.3764,0 0.59284,0.21644 0.22584,0.20702 0.22584,0.5552 v 1.39271 h -9.3349 v -0.77164 q 0,-0.23525 0.0941,-0.48933 0.10351,-0.25407 0.31995,-0.47051 l 4.13107,-4.14048 q 0.51756,-0.52697 0.9222,-1.00689 0.41404,-0.47992 0.68694,-0.95043 0.2823,-0.47051 0.42346,-0.95043 0.15056,-0.48933 0.15056,-1.02571 0,-0.48933 -0.14115,-0.85633 -0.14115,-0.3764 -0.40464,-0.63048 -0.26349,-0.25407 -0.63048,-0.37641 -0.35759,-0.13174 -0.80928,-0.13174 -0.83751,0 -1.3833,0.42346 -0.53638,0.42346 -0.75281,1.13863 -0.10351,0.35759 -0.31054,0.51756 -0.20702,0.15057 -0.52697,0.15057 -0.14115,0 -0.31053,-0.0282 l -1.22333,-0.21644 q 0.14115,-0.97866 0.54579,-1.71265 0.40464,-0.74341 1.00689,-1.23274 0.61166,-0.49874 1.39271,-0.7434 0.79046,-0.25408 1.69383,-0.25408 z"
           style="font-style:normal;font-variant:normal;font-weight:bold;font-stretch:normal;font-size:18.82037354px;font-family:Lato;-inkscape-font-specification:'Lato Bold';fill:#d1e8f4;fill-opacity:1;stroke-width:0.45101345"
           id="path3373"
           inkscape:connector-curvature="0" />
        <path
           d="m 120.92679,145.37887 q 0.77163,0 1.49622,0.25407 0.73399,0.25408 1.28919,0.77164 0.5552,0.50815 0.89397,1.27037 0.33877,0.76223 0.33877,1.77853 0,0.95043 -0.34818,1.78793 -0.34818,0.8281 -0.97866,1.44917 -0.63048,0.62108 -1.52445,0.97866 -0.88456,0.35759 -1.95732,0.35759 -1.09158,0 -1.95732,-0.34818 -0.86573,-0.34817 -1.4774,-0.96925 -0.61166,-0.63048 -0.94101,-1.50563 -0.31995,-0.88455 -0.31995,-1.95732 0,-0.95983 0.38582,-1.96672 0.39523,-1.0163 1.21391,-2.10789 l 3.24652,-4.35691 q 0.16938,-0.22585 0.48933,-0.38582 0.32935,-0.15997 0.75281,-0.15997 h 2.07024 l -4.03697,4.94034 q -0.13174,0.15998 -0.25407,0.30113 -0.11293,0.14115 -0.22585,0.29172 0.39523,-0.19762 0.84692,-0.31054 0.4611,-0.11292 0.99748,-0.11292 z m -3.25593,4.22517 q 0,0.56461 0.15057,1.03512 0.15997,0.4611 0.4611,0.79046 0.31053,0.32935 0.76222,0.51756 0.45169,0.17879 1.04453,0.17879 0.5552,0 1.0163,-0.1882 0.47051,-0.18821 0.79987,-0.52697 0.33876,-0.33877 0.52697,-0.79046 0.1882,-0.4611 0.1882,-0.99748 0,-0.58343 -0.17879,-1.04453 -0.17879,-0.47051 -0.50815,-0.79045 -0.32936,-0.32936 -0.79046,-0.49874 -0.4611,-0.16939 -1.0163,-0.16939 -0.5552,0 -1.00689,0.18821 -0.45169,0.1882 -0.78104,0.52697 -0.31995,0.32935 -0.49874,0.79045 -0.16939,0.45169 -0.16939,0.97866 z"
           style="font-style:normal;font-variant:normal;font-weight:bold;font-stretch:normal;font-size:18.82037354px;font-family:Lato;-inkscape-font-specification:'Lato Bold';fill:#d1e8f4;fill-opacity:1;stroke-width:0.45101345"
           id="path3375"
           inkscape:connector-curvature="0" />
        <path
           d="m 126.29206,152.44592 q 0,-0.26349 0.0941,-0.48933 0.10351,-0.23526 0.28231,-0.40464 0.17879,-0.17879 0.43287,-0.2729 0.25407,-0.10351 0.5552,-0.10351 0.35758,0 0.62107,0.13175 0.26349,0.12233 0.44228,0.34817 0.17879,0.21644 0.26348,0.50815 0.0847,0.28231 0.0847,0.60225 0,0.45169 -0.14116,0.95043 -0.13174,0.49874 -0.39523,0.99748 -0.26348,0.49874 -0.6493,0.96925 -0.38582,0.47051 -0.88456,0.86574 l -0.40463,-0.367 q -0.16939,-0.14115 -0.16939,-0.34817 0,-0.0753 0.047,-0.16939 0.0565,-0.0941 0.13175,-0.16938 0.10351,-0.11292 0.25407,-0.28231 0.15056,-0.15997 0.30113,-0.3764 0.15056,-0.20703 0.27289,-0.4611 0.13175,-0.24467 0.18821,-0.52697 -0.29172,0 -0.53638,-0.10352 -0.24467,-0.11292 -0.42346,-0.30112 -0.16939,-0.18821 -0.2729,-0.44228 -0.0941,-0.25408 -0.0941,-0.5552 z"
           style="font-style:normal;font-variant:normal;font-weight:bold;font-stretch:normal;font-size:18.82037354px;font-family:Lato;-inkscape-font-specification:'Lato Bold';fill:#d1e8f4;fill-opacity:1;stroke-width:0.45101345"
           id="path3377"
           inkscape:connector-curvature="0" />
        <path
           d="m 132.29782,152.13538 h 2.75718 v -7.93279 q 0,-0.46109 0.0282,-0.96924 l -1.95732,1.63737 q -0.12234,0.10351 -0.25408,0.14115 -0.12233,0.0376 -0.24466,0.0376 -0.18821,0 -0.34818,-0.0753 -0.15056,-0.0847 -0.22585,-0.1882 l -0.73399,-1.00689 4.14989,-3.52882 h 1.91027 v 11.88506 h 2.44665 v 1.74089 h -7.52815 z"
           style="font-style:normal;font-variant:normal;font-weight:bold;font-stretch:normal;font-size:18.82037354px;font-family:Lato;-inkscape-font-specification:'Lato Bold';fill:#d1e8f4;fill-opacity:1;stroke-width:0.45101345"
           id="path3379"
           inkscape:connector-curvature="0" />
        <path
           d="m 141.37072,152.59648 q 0,-0.29171 0.10351,-0.5552 0.11292,-0.26349 0.30113,-0.45169 0.19761,-0.1882 0.4611,-0.30112 0.26348,-0.11293 0.56461,-0.11293 0.29171,0 0.5552,0.11293 0.26349,0.11292 0.45169,0.30112 0.1882,0.1882 0.30112,0.45169 0.11293,0.26349 0.11293,0.5552 0,0.30113 -0.11293,0.56461 -0.11292,0.25408 -0.30112,0.44228 -0.1882,0.1882 -0.45169,0.29172 -0.26349,0.11292 -0.5552,0.11292 -0.30113,0 -0.56461,-0.11292 -0.26349,-0.10352 -0.4611,-0.29172 -0.18821,-0.1882 -0.30113,-0.44228 -0.10351,-0.26348 -0.10351,-0.56461 z"
           style="font-style:normal;font-variant:normal;font-weight:bold;font-stretch:normal;font-size:18.82037354px;font-family:Lato;-inkscape-font-specification:'Lato Bold';fill:#d1e8f4;fill-opacity:1;stroke-width:0.45101345"
           id="path3381"
           inkscape:connector-curvature="0" />
        <path
           d="m 150.79238,140.11857 q 0.94102,0 1.69383,0.2729 0.76223,0.26348 1.29861,0.7434 0.53638,0.47051 0.81868,1.11041 0.29172,0.63989 0.29172,1.38329 0,0.64931 -0.15056,1.14805 -0.14116,0.48933 -0.42346,0.85632 -0.2729,0.367 -0.67754,0.62108 -0.39522,0.25407 -0.90337,0.42345 1.22332,0.38582 1.82557,1.17628 0.60225,0.79045 0.60225,1.98555 0,1.0163 -0.3764,1.79734 -0.37641,0.78105 -1.0163,1.31743 -0.6399,0.52697 -1.48681,0.79986 -0.83751,0.2729 -1.77853,0.2729 -1.02571,0 -1.78793,-0.23526 -0.76223,-0.23525 -1.32684,-0.69635 -0.56461,-0.4611 -0.95984,-1.12922 -0.39523,-0.66812 -0.67753,-1.54327 l 1.02571,-0.42346 q 0.26348,-0.11292 0.53638,-0.11292 0.24466,0 0.43287,0.10351 0.19761,0.10351 0.30112,0.30113 0.16939,0.32935 0.367,0.6493 0.20702,0.31994 0.48933,0.57402 0.28231,0.24466 0.65871,0.40464 0.38582,0.15056 0.91279,0.15056 0.59284,0 1.03512,-0.1882 0.44228,-0.19762 0.734,-0.50815 0.30112,-0.31054 0.44228,-0.68695 0.15056,-0.38581 0.15056,-0.77163 0,-0.48933 -0.10351,-0.88456 -0.10352,-0.40464 -0.43287,-0.68694 -0.32936,-0.28231 -0.95043,-0.44228 -0.61166,-0.15998 -1.64678,-0.15998 v -1.65619 q 0.85632,-0.009 1.42093,-0.15997 0.56462,-0.15056 0.89397,-0.41405 0.33877,-0.27289 0.47051,-0.6493 0.13174,-0.37641 0.13174,-0.8281 0,-0.96925 -0.52697,-1.45858 -0.52697,-0.49874 -1.43976,-0.49874 -0.82809,0 -1.37388,0.44228 -0.54579,0.43287 -0.76223,1.11981 -0.11292,0.35759 -0.31053,0.51756 -0.19762,0.15057 -0.51756,0.15057 -0.15057,0 -0.31995,-0.0282 l -1.22332,-0.21644 q 0.14115,-0.97866 0.54579,-1.71265 0.40463,-0.74341 1.00689,-1.23274 0.61166,-0.49874 1.3927,-0.7434 0.79046,-0.25408 1.69384,-0.25408 z"
           style="font-style:normal;font-variant:normal;font-weight:bold;font-stretch:normal;font-size:18.82037354px;font-family:Lato;-inkscape-font-specification:'Lato Bold';fill:#d1e8f4;fill-opacity:1;stroke-width:0.45101345"
           id="path3383"
           inkscape:connector-curvature="0" />
        <path
           d="m 164.69269,148.74771 h 1.71265 v 1.34566 q 0,0.18821 -0.12233,0.32936 -0.12233,0.13174 -0.35759,0.13174 h -1.23273 v 3.3218 h -2.0326 v -3.3218 h -5.74022 q -0.23525,0 -0.41404,-0.14115 -0.1788,-0.15057 -0.22585,-0.367 l -0.23525,-1.17627 6.44598,-8.61032 h 2.20198 z m -2.0326,-4.45101 q 0,-0.30113 0.0188,-0.64931 0.0188,-0.34817 0.0659,-0.72458 l -4.22517,5.8249 h 4.14048 z"
           style="font-style:normal;font-variant:normal;font-weight:bold;font-stretch:normal;font-size:18.82037354px;font-family:Lato;-inkscape-font-specification:'Lato Bold';fill:#d1e8f4;fill-opacity:1;stroke-width:0.45101345"
           id="path3385"
           inkscape:connector-curvature="0" />
        <path
           d="m 169.38043,147.97608 q 0,-1.9385 -0.47051,-3.81113 -0.47051,-1.88203 -1.33625,-3.52882 -0.12233,-0.24466 -0.12233,-0.42345 0,-0.1788 0.0941,-0.29172 0.0941,-0.12233 0.22585,-0.19761 l 1.03512,-0.62108 q 0.69635,1.07276 1.18568,2.15494 0.48933,1.07276 0.79987,2.17375 0.31053,1.10099 0.45168,2.23962 0.15057,1.12923 0.15057,2.3055 0,1.17627 -0.15057,2.3055 -0.14115,1.12922 -0.45168,2.23021 -0.31054,1.10099 -0.79987,2.18316 -0.48933,1.08217 -1.18568,2.15494 l -1.03512,-0.63049 q -0.13175,-0.0753 -0.22585,-0.19761 -0.0941,-0.11292 -0.0941,-0.30113 0,-0.0847 0.0188,-0.1882 0.0282,-0.10351 0.0941,-0.22585 0.87515,-1.64678 1.34566,-3.5194 0.47051,-1.87263 0.47051,-3.81113 z"
           style="font-style:normal;font-variant:normal;font-weight:bold;font-stretch:normal;font-size:18.82037354px;font-family:Lato;-inkscape-font-specification:'Lato Bold';fill:#d1e8f4;fill-opacity:1;stroke-width:0.45101345"
           id="path3387"
           inkscape:connector-curvature="0" />
        <path
           d="m 173.53561,152.44592 q 0,-0.26349 0.0941,-0.48933 0.10351,-0.23526 0.28231,-0.40464 0.17879,-0.17879 0.43287,-0.2729 0.25407,-0.10351 0.5552,-0.10351 0.35758,0 0.62107,0.13175 0.26348,0.12233 0.44228,0.34817 0.17879,0.21644 0.26348,0.50815 0.0847,0.28231 0.0847,0.60225 0,0.45169 -0.14115,0.95043 -0.13174,0.49874 -0.39523,0.99748 -0.26348,0.49874 -0.6493,0.96925 -0.38582,0.47051 -0.88456,0.86574 l -0.40463,-0.367 q -0.16939,-0.14115 -0.16939,-0.34817 0,-0.0753 0.0471,-0.16939 0.0565,-0.0941 0.13175,-0.16938 0.10351,-0.11292 0.25407,-0.28231 0.15056,-0.15997 0.30113,-0.3764 0.15056,-0.20703 0.27289,-0.4611 0.13174,-0.24467 0.18821,-0.52697 -0.29172,0 -0.53638,-0.10352 -0.24467,-0.11292 -0.42346,-0.30112 -0.16939,-0.18821 -0.2729,-0.44228 -0.0941,-0.25408 -0.0941,-0.5552 z m -0.0659,-6.5589 q 0,-0.29172 0.10351,-0.5552 0.11292,-0.26349 0.30113,-0.45169 0.19761,-0.18821 0.4611,-0.30113 0.26348,-0.11292 0.56461,-0.11292 0.29171,0 0.5552,0.11292 0.26348,0.11292 0.45169,0.30113 0.1882,0.1882 0.30112,0.45169 0.11293,0.26348 0.11293,0.5552 0,0.30112 -0.11293,0.56461 -0.11292,0.25407 -0.30112,0.44228 -0.18821,0.1882 -0.45169,0.30112 -0.26349,0.10352 -0.5552,0.10352 -0.30113,0 -0.56461,-0.10352 -0.26349,-0.11292 -0.4611,-0.30112 -0.18821,-0.18821 -0.30113,-0.44228 -0.10351,-0.26349 -0.10351,-0.56461 z"
           style="font-style:normal;font-variant:normal;font-weight:bold;font-stretch:normal;font-size:18.82037354px;font-family:Lato;-inkscape-font-specification:'Lato Bold';fill:#d1e8f4;fill-opacity:1;stroke-width:0.45101345"
           id="path3389"
           inkscape:connector-curvature="0" />
      </g>
    </g>
    <rect
       style="opacity:1;fill:#f3f8fa;fill-opacity:1;stroke:none;stroke-width:1.26449847;stroke-linecap:round;stroke-linejoin:round;stroke-miterlimit:4;stroke-dasharray:none;stroke-dashoffset:0;stroke-opacity:0.77184466"
       id="rect4386"
       width="265.83899"
       height="161.24171"
       x="112.54099"
       y="-107.85346"
       ry="0"
       inkscape:export-xdpi="96"
       inkscape:export-ydpi="96" />
    <g
       id="g4144"
       transform="matrix(0.32243251,-0.1861565,0.27923474,0.23989524,17.806007,64.554514)">
      <rect
         ry="12.607126"
         y="-6.0491428"
         x="483.3201"
         height="208.40123"
         width="285.15521"
         id="rect3459"
         style="opacity:1;fill:#a8d7f8;fill-opacity:1;stroke:none;stroke-width:7.66189766;stroke-linecap:round;stroke-linejoin:round;stroke-miterlimit:4;stroke-dasharray:45.97137978, 45.97137978;stroke-dashoffset:0;stroke-opacity:1" />
      <rect
         ry="12.095242"
         y="35.225845"
         x="426.92633"
         height="128.43149"
         width="220.73811"
         id="rect3879"
         style="opacity:0.28000004;fill:url(#meshgradient3883);fill-opacity:1;stroke:none;stroke-width:5.29200125;stroke-linecap:round;stroke-linejoin:round;stroke-miterlimit:4;stroke-dasharray:31.75200486, 31.75200486;stroke-dashoffset:0;stroke-opacity:1;filter:url(#filter905)" />
      <rect
         ry="12.095242"
         y="35.755013"
         x="423.22165"
         height="128.43149"
         width="220.73811"
         id="rect3461"
         style="opacity:0.306;fill:url(#meshgradient3539);fill-opacity:1;stroke:none;stroke-width:5.29200125;stroke-linecap:round;stroke-linejoin:round;stroke-miterlimit:4;stroke-dasharray:31.75200486, 31.75200486;stroke-dashoffset:0;stroke-opacity:1;filter:url(#filter905-2)" />
      <rect
         style="opacity:0.306;fill:url(#meshgradient3553);fill-opacity:1;stroke:none;stroke-width:5.29200125;stroke-linecap:round;stroke-linejoin:round;stroke-miterlimit:4;stroke-dasharray:31.75200486, 31.75200486;stroke-dashoffset:0;stroke-opacity:1"
         id="rect3463"
         width="220.73811"
         height="128.43149"
         x="407.34686"
         y="21.467499"
         ry="12.095242" />
      <rect
         style="opacity:0.306;fill:url(#meshgradient3897);fill-opacity:1;stroke:none;stroke-width:5.29200125;stroke-linecap:round;stroke-linejoin:round;stroke-miterlimit:4;stroke-dasharray:31.75200486, 31.75200486;stroke-dashoffset:0;stroke-opacity:1"
         id="rect3881"
         width="220.73811"
         height="128.43149"
         x="407.34686"
         y="17.763329"
         ry="12.095242" />
      <path
         style="opacity:0.61799999;fill:none;fill-opacity:1;stroke:#ccf2fb;stroke-width:5;stroke-linecap:round;stroke-linejoin:round;stroke-miterlimit:4;stroke-dasharray:none;stroke-opacity:1;marker-start:url(#marker2254-7);marker-end:url(#marker2288-4);filter:url(#filter2762-7)"
         d="m 432.89808,144.22937 c 92.22618,0 75.89763,-106.055312 168.12382,-106.055322"
         id="path3465"
         inkscape:connector-curvature="0"
         sodipodi:nodetypes="cc" />
      <path
         sodipodi:nodetypes="cc"
         inkscape:connector-curvature="0"
         id="path3467"
         d="m 428.66475,136.29185 c 92.22618,0 75.89763,-106.055294 168.12381,-106.055304"
         style="fill:none;fill-opacity:1;stroke:#ccf2fb;stroke-width:5;stroke-linecap:round;stroke-linejoin:round;stroke-miterlimit:4;stroke-dasharray:none;stroke-opacity:1;marker-start:url(#DotS-4);marker-end:url(#marker1312-9)" />
      <text
         xml:space="preserve"
         style="font-style:normal;font-weight:normal;font-size:18.04053879px;line-height:1.25;font-family:sans-serif;letter-spacing:0px;word-spacing:0px;fill:#fbfdfe;fill-opacity:1;stroke:none;stroke-width:0.45101345"
         x="506.18616"
         y="124.78426"
         id="text3471"><tspan
           sodipodi:role="line"
           id="tspan3469"
           x="506.18616"
           y="124.78426"
           style="font-style:normal;font-variant:normal;font-weight:bold;font-stretch:normal;font-size:18.82037354px;font-family:Lato;-inkscape-font-specification:'Lato Bold';fill:#fbfdfe;fill-opacity:1;stroke-width:0.45101345">cubic-bezier(.76,.08,.26,1.34);</tspan></text>
      <g
         transform="translate(585.14689,-20.625336)"
         id="g3535"
         style="font-style:normal;font-weight:normal;font-size:18.04053879px;line-height:1.25;font-family:sans-serif;letter-spacing:0px;word-spacing:0px;opacity:0.769;fill:#d1e8f4;fill-opacity:1;stroke:none;stroke-width:0.45101345;filter:url(#filter3400-8)"
         aria-label="cubic-bezier(.76,.08,.26,1.34);">
        <path
           inkscape:connector-curvature="0"
           id="path3473"
           style="font-style:normal;font-variant:normal;font-weight:bold;font-stretch:normal;font-size:18.82037354px;font-family:Lato;-inkscape-font-specification:'Lato Bold';fill:#d1e8f4;fill-opacity:1;stroke-width:0.45101345"
           d="m -62.46716,146.26343 q -0.103512,0.13174 -0.207024,0.20702 -0.0941,0.0753 -0.282305,0.0753 -0.178794,0 -0.348177,-0.10351 -0.169384,-0.11292 -0.404638,-0.24467 -0.235255,-0.14115 -0.564612,-0.24466 -0.319946,-0.11292 -0.799865,-0.11292 -0.611663,0 -1.072762,0.22584 -0.461099,0.21644 -0.771635,0.63048 -0.301126,0.41405 -0.451689,1.00689 -0.150563,0.58344 -0.150563,1.32684 0,0.77164 0.159973,1.37389 0.169383,0.60225 0.47992,1.0163 0.310536,0.40464 0.752815,0.62107 0.442278,0.20702 0.997479,0.20702 0.555201,0 0.893968,-0.13174 0.348177,-0.14115 0.583432,-0.30112 0.235254,-0.16939 0.404638,-0.30113 0.178793,-0.14115 0.395228,-0.14115 0.282305,0 0.423458,0.21643 l 0.668123,0.84692 q -0.385817,0.45169 -0.837506,0.76222 -0.451689,0.30113 -0.941019,0.48933 -0.47992,0.1788 -0.99748,0.25408 -0.51756,0.0753 -1.02571,0.0753 -0.893968,0 -1.684424,-0.32936 -0.790455,-0.33876 -1.383297,-0.97866 -0.583432,-0.63989 -0.931609,-1.56209 -0.338766,-0.93161 -0.338766,-2.11729 0,-1.06335 0.301126,-1.96673 0.310536,-0.91279 0.903378,-1.5715 0.592841,-0.66812 1.467989,-1.04453 0.875147,-0.37641 2.01378,-0.37641 1.082171,0 1.891447,0.34818 0.818686,0.34818 1.467989,0.99748 z" />
        <path
           inkscape:connector-curvature="0"
           id="path3475"
           style="font-style:normal;font-variant:normal;font-weight:bold;font-stretch:normal;font-size:18.82037354px;font-family:Lato;-inkscape-font-specification:'Lato Bold';fill:#d1e8f4;fill-opacity:1;stroke-width:0.45101345"
           d="m -58.156118,144.22141 v 6.13545 q 0,0.88455 0.404638,1.37388 0.414048,0.47992 1.232734,0.47992 0.602252,0 1.129222,-0.26348 0.526971,-0.2729 0.99748,-0.74341 v -6.98236 h 2.324316 v 9.65486 h -1.420938 q -0.451689,0 -0.592842,-0.42346 l -0.159973,-0.77164 q -0.301126,0.30113 -0.621072,0.5552 -0.319946,0.24467 -0.686944,0.42346 -0.357587,0.16939 -0.781045,0.26349 -0.414048,0.10351 -0.893968,0.10351 -0.790456,0 -1.402118,-0.26349 -0.602252,-0.27289 -1.0163,-0.76222 -0.414048,-0.48933 -0.630482,-1.15745 -0.207025,-0.67754 -0.207025,-1.48681 v -6.13545 z" />
        <path
           inkscape:connector-curvature="0"
           id="path3477"
           style="font-style:normal;font-variant:normal;font-weight:bold;font-stretch:normal;font-size:18.82037354px;font-family:Lato;-inkscape-font-specification:'Lato Bold';fill:#d1e8f4;fill-opacity:1;stroke-width:0.45101345"
           d="m -49.557855,153.87627 v -13.98354 h 2.324316 v 5.51437 q 0.574022,-0.61166 1.298606,-0.96925 0.724585,-0.367 1.693834,-0.367 0.790456,0 1.439758,0.32936 0.658713,0.31994 1.129223,0.94102 0.479919,0.62107 0.733994,1.53386 0.263486,0.91279 0.263486,2.09847 0,1.08217 -0.291716,2.00437 -0.291716,0.9222 -0.837507,1.59973 -0.53638,0.67753 -1.308016,1.06335 -0.762225,0.37641 -1.712654,0.37641 -0.442279,0 -0.809276,-0.0941 -0.366997,-0.0847 -0.668123,-0.24467 -0.301126,-0.15997 -0.564611,-0.38582 -0.254075,-0.23525 -0.48933,-0.51756 l -0.103512,0.64931 q -0.05646,0.24466 -0.197614,0.34817 -0.131743,0.10352 -0.366997,0.10352 z m 4.51689,-7.99866 q -0.724584,0 -1.242145,0.31053 -0.50815,0.30113 -0.950429,0.85633 v 4.32869 q 0.395228,0.48933 0.856327,0.68694 0.47051,0.1882 1.016301,0.1882 0.52697,0 0.950428,-0.19761 0.423459,-0.19761 0.715175,-0.60225 0.301126,-0.40464 0.461099,-1.0163 0.159973,-0.62107 0.159973,-1.45858 0,-0.84692 -0.141153,-1.43035 -0.131742,-0.59284 -0.385817,-0.95984 -0.254076,-0.367 -0.621073,-0.53638 -0.357587,-0.16938 -0.818686,-0.16938 z" />
        <path
           inkscape:connector-curvature="0"
           id="path3479"
           style="font-style:normal;font-variant:normal;font-weight:bold;font-stretch:normal;font-size:18.82037354px;font-family:Lato;-inkscape-font-specification:'Lato Bold';fill:#d1e8f4;fill-opacity:1;stroke-width:0.45101345"
           d="m -36.377712,144.22141 v 9.65486 h -2.324316 v -9.65486 z m 0.348177,-2.81364 q 0,0.30112 -0.122333,0.56461 -0.122332,0.26349 -0.329356,0.4611 -0.197614,0.19761 -0.47051,0.31995 -0.272895,0.11292 -0.583431,0.11292 -0.301126,0 -0.574022,-0.11292 -0.263485,-0.12234 -0.461099,-0.31995 -0.197614,-0.19761 -0.319946,-0.4611 -0.112922,-0.26349 -0.112922,-0.56461 0,-0.31054 0.112922,-0.58343 0.122332,-0.2729 0.319946,-0.47051 0.197614,-0.19762 0.461099,-0.31054 0.272896,-0.12233 0.574022,-0.12233 0.310536,0 0.583431,0.12233 0.272896,0.11292 0.47051,0.31054 0.207024,0.19761 0.329356,0.47051 0.122333,0.27289 0.122333,0.58343 z" />
        <path
           inkscape:connector-curvature="0"
           id="path3481"
           style="font-style:normal;font-variant:normal;font-weight:bold;font-stretch:normal;font-size:18.82037354px;font-family:Lato;-inkscape-font-specification:'Lato Bold';fill:#d1e8f4;fill-opacity:1;stroke-width:0.45101345"
           d="m -26.958409,146.26343 q -0.103512,0.13174 -0.207024,0.20702 -0.0941,0.0753 -0.282306,0.0753 -0.178793,0 -0.348176,-0.10351 -0.169384,-0.11292 -0.404638,-0.24467 -0.235255,-0.14115 -0.564612,-0.24466 -0.319946,-0.11292 -0.799866,-0.11292 -0.611662,0 -1.072761,0.22584 -0.461099,0.21644 -0.771635,0.63048 -0.301126,0.41405 -0.451689,1.00689 -0.150563,0.58344 -0.150563,1.32684 0,0.77164 0.159973,1.37389 0.169383,0.60225 0.47992,1.0163 0.310536,0.40464 0.752815,0.62107 0.442278,0.20702 0.997479,0.20702 0.555201,0 0.893968,-0.13174 0.348177,-0.14115 0.583432,-0.30112 0.235254,-0.16939 0.404638,-0.30113 0.178793,-0.14115 0.395227,-0.14115 0.282306,0 0.423459,0.21643 l 0.668123,0.84692 q -0.385817,0.45169 -0.837506,0.76222 -0.451689,0.30113 -0.941019,0.48933 -0.47992,0.1788 -0.99748,0.25408 -0.51756,0.0753 -1.02571,0.0753 -0.893968,0 -1.684424,-0.32936 -0.790455,-0.33876 -1.383297,-0.97866 -0.583432,-0.63989 -0.931609,-1.56209 -0.338766,-0.93161 -0.338766,-2.11729 0,-1.06335 0.301126,-1.96673 0.310536,-0.91279 0.903378,-1.5715 0.592841,-0.66812 1.467989,-1.04453 0.875147,-0.37641 2.01378,-0.37641 1.082171,0 1.891447,0.34818 0.818686,0.34818 1.467989,0.99748 z" />
        <path
           inkscape:connector-curvature="0"
           id="path3483"
           style="font-style:normal;font-variant:normal;font-weight:bold;font-stretch:normal;font-size:18.82037354px;font-family:Lato;-inkscape-font-specification:'Lato Bold';fill:#d1e8f4;fill-opacity:1;stroke-width:0.45101345"
           d="m -25.075198,147.22326 h 4.874477 v 1.9385 h -4.874477 z" />
        <path
           inkscape:connector-curvature="0"
           id="path3485"
           style="font-style:normal;font-variant:normal;font-weight:bold;font-stretch:normal;font-size:18.82037354px;font-family:Lato;-inkscape-font-specification:'Lato Bold';fill:#d1e8f4;fill-opacity:1;stroke-width:0.45101345"
           d="m -17.982268,153.87627 v -13.98354 h 2.324316 v 5.51437 q 0.574021,-0.61166 1.298606,-0.96925 0.724584,-0.367 1.693833,-0.367 0.790456,0 1.439759,0.32936 0.658713,0.31994 1.129222,0.94102 0.4799197,0.62107 0.7339947,1.53386 0.2634852,0.91279 0.2634852,2.09847 0,1.08217 -0.2917158,2.00437 -0.2917157,0.9222 -0.8375061,1.59973 -0.536381,0.67753 -1.308016,1.06335 -0.762226,0.37641 -1.712654,0.37641 -0.442279,0 -0.809276,-0.0941 -0.366998,-0.0847 -0.668124,-0.24467 -0.301126,-0.15997 -0.564611,-0.38582 -0.254075,-0.23525 -0.48933,-0.51756 l -0.103512,0.64931 q -0.05646,0.24466 -0.197614,0.34817 -0.131742,0.10352 -0.366997,0.10352 z m 4.516889,-7.99866 q -0.724584,0 -1.242144,0.31053 -0.50815,0.30113 -0.950429,0.85633 v 4.32869 q 0.395228,0.48933 0.856327,0.68694 0.470509,0.1882 1.0163,0.1882 0.52697,0 0.950429,-0.19761 0.423458,-0.19761 0.715174,-0.60225 0.301126,-0.40464 0.461099,-1.0163 0.159973,-0.62107 0.159973,-1.45858 0,-0.84692 -0.141152,-1.43035 -0.131743,-0.59284 -0.385818,-0.95984 -0.254075,-0.367 -0.621072,-0.53638 -0.357588,-0.16938 -0.818687,-0.16938 z" />
        <path
           inkscape:connector-curvature="0"
           id="path3487"
           style="font-style:normal;font-variant:normal;font-weight:bold;font-stretch:normal;font-size:18.82037354px;font-family:Lato;-inkscape-font-specification:'Lato Bold';fill:#d1e8f4;fill-opacity:1;stroke-width:0.45101345"
           d="m -3.2870859,144.07085 q 0.9127881,0 1.6750132,0.29172 0.77163532,0.29171 1.32683634,0.85632 0.55520102,0.55521 0.86573718,1.37389 0.31053617,0.80928 0.31053617,1.85381 0,0.26348 -0.0282306,0.44228 -0.0188204,0.16938 -0.0846917,0.27289 -0.0564611,0.0941 -0.15997318,0.14116 -0.10351205,0.0376 -0.26348523,0.0376 H -5.6114021 q 0.1035121,1.48681 0.7998659,2.18316 0.6963538,0.69635 1.8443966,0.69635 0.5646112,0 0.9692492,-0.13174 0.4140483,-0.13174 0.7151742,-0.29171 0.31053621,-0.15998 0.53638069,-0.29172 0.23525467,-0.13174 0.45168896,-0.13174 0.14115281,0 0.24466486,0.0565 0.10351205,0.0565 0.17879355,0.15997 l 0.67753345,0.84692 q -0.38581766,0.45169 -0.86573719,0.76222 -0.47991952,0.30113 -1.00689002,0.48933 -0.5175602,0.1788 -1.0633511,0.25408 -0.5363806,0.0753 -1.0445307,0.0753 -1.00689,0 -1.8726272,-0.32936 -0.8657371,-0.33876 -1.5056298,-0.98807 -0.6398927,-0.65871 -1.00689,-1.61855 -0.3669973,-0.96925 -0.3669973,-2.23962 0,-0.98807 0.3199463,-1.85381 0.3199464,-0.87515 0.9127882,-1.51504 0.6022519,-0.6493 1.4585789,-1.02571 0.8657372,-0.37641 1.9479087,-0.37641 z m 0.047051,1.6656 q -1.0163002,0 -1.5903216,0.57403 -0.5740214,0.57402 -0.7339945,1.62796 h 4.3663266 q 0,-0.45169 -0.1223324,-0.84692 -0.1223324,-0.40464 -0.3764075,-0.70576 -0.254075,-0.30113 -0.6398927,-0.47051 -0.3858176,-0.1788 -0.9033779,-0.1788 z" />
        <path
           inkscape:connector-curvature="0"
           id="path3489"
           style="font-style:normal;font-variant:normal;font-weight:bold;font-stretch:normal;font-size:18.82037354px;font-family:Lato;-inkscape-font-specification:'Lato Bold';fill:#d1e8f4;fill-opacity:1;stroke-width:0.45101345"
           d="m 9.7771918,145.18125 q 0,0.24467 -0.094102,0.47992 -0.084692,0.22585 -0.2070241,0.38582 l -4.5921712,6.04134 H 9.645449 v 1.78794 H 2.1831711 v -0.96925 q 0,-0.15998 0.075282,-0.37641 0.075282,-0.22584 0.2352547,-0.42346 l 4.6298119,-6.10721 H 2.4560665 v -1.77853 h 7.3211253 z" />
        <path
           inkscape:connector-curvature="0"
           id="path3491"
           style="font-style:normal;font-variant:normal;font-weight:bold;font-stretch:normal;font-size:18.82037354px;font-family:Lato;-inkscape-font-specification:'Lato Bold';fill:#d1e8f4;fill-opacity:1;stroke-width:0.45101345"
           d="m 14.091764,144.22141 v 9.65486 h -2.324316 v -9.65486 z m 0.348177,-2.81364 q 0,0.30112 -0.122332,0.56461 -0.122333,0.26349 -0.329357,0.4611 -0.197614,0.19761 -0.470509,0.31995 -0.272895,0.11292 -0.583432,0.11292 -0.301126,0 -0.574021,-0.11292 -0.263485,-0.12234 -0.461099,-0.31995 -0.197614,-0.19761 -0.319946,-0.4611 -0.112923,-0.26349 -0.112923,-0.56461 0,-0.31054 0.112923,-0.58343 0.122332,-0.2729 0.319946,-0.47051 0.197614,-0.19762 0.461099,-0.31054 0.272895,-0.12233 0.574021,-0.12233 0.310537,0 0.583432,0.12233 0.272895,0.11292 0.470509,0.31054 0.207024,0.19761 0.329357,0.47051 0.122332,0.27289 0.122332,0.58343 z" />
        <path
           inkscape:connector-curvature="0"
           id="path3493"
           style="font-style:normal;font-variant:normal;font-weight:bold;font-stretch:normal;font-size:18.82037354px;font-family:Lato;-inkscape-font-specification:'Lato Bold';fill:#d1e8f4;fill-opacity:1;stroke-width:0.45101345"
           d="m 20.71624,144.07085 q 0.912789,0 1.675014,0.29172 0.771635,0.29171 1.326836,0.85632 0.555201,0.55521 0.865737,1.37389 0.310536,0.80928 0.310536,1.85381 0,0.26348 -0.02823,0.44228 -0.01882,0.16938 -0.08469,0.27289 -0.05646,0.0941 -0.159973,0.14116 -0.103512,0.0376 -0.263485,0.0376 h -5.966059 q 0.103512,1.48681 0.799866,2.18316 0.696354,0.69635 1.844397,0.69635 0.564611,0 0.969249,-0.13174 0.414048,-0.13174 0.715174,-0.29171 0.310536,-0.15998 0.536381,-0.29172 0.235255,-0.13174 0.451689,-0.13174 0.141153,0 0.244665,0.0565 0.103512,0.0565 0.178793,0.15997 l 0.677534,0.84692 q -0.385818,0.45169 -0.865737,0.76222 -0.47992,0.30113 -1.00689,0.48933 -0.517561,0.1788 -1.063352,0.25408 -0.53638,0.0753 -1.04453,0.0753 -1.00689,0 -1.872627,-0.32936 -0.865738,-0.33876 -1.50563,-0.98807 -0.639893,-0.65871 -1.00689,-1.61855 -0.366998,-0.96925 -0.366998,-2.23962 0,-0.98807 0.319947,-1.85381 0.319946,-0.87515 0.912788,-1.51504 0.602252,-0.6493 1.458579,-1.02571 0.865737,-0.37641 1.947908,-0.37641 z m 0.04705,1.6656 q -1.0163,0 -1.590321,0.57403 -0.574022,0.57402 -0.733995,1.62796 h 4.366327 q 0,-0.45169 -0.122332,-0.84692 -0.122333,-0.40464 -0.376408,-0.70576 -0.254075,-0.30113 -0.639893,-0.47051 -0.385817,-0.1788 -0.903378,-0.1788 z" />
        <path
           inkscape:connector-curvature="0"
           id="path3495"
           style="font-style:normal;font-variant:normal;font-weight:bold;font-stretch:normal;font-size:18.82037354px;font-family:Lato;-inkscape-font-specification:'Lato Bold';fill:#d1e8f4;fill-opacity:1;stroke-width:0.45101345"
           d="m 26.79816,153.87627 v -9.65486 h 1.364477 q 0.357587,0 0.49874,0.13175 0.141152,0.13174 0.188203,0.45169 l 0.141153,1.16686 q 0.51756,-0.89397 1.213914,-1.41153 0.696354,-0.51756 1.562091,-0.51756 0.715174,0 1.185684,0.32936 l -0.301126,1.74088 q -0.02823,0.16939 -0.122333,0.24467 -0.0941,0.0659 -0.254075,0.0659 -0.141152,0 -0.385817,-0.0659 -0.244665,-0.0659 -0.649303,-0.0659 -0.724585,0 -1.242145,0.40463 -0.51756,0.39523 -0.875147,1.16687 v 6.01311 z" />
        <path
           inkscape:connector-curvature="0"
           id="path3497"
           style="font-style:normal;font-variant:normal;font-weight:bold;font-stretch:normal;font-size:18.82037354px;font-family:Lato;-inkscape-font-specification:'Lato Bold';fill:#d1e8f4;fill-opacity:1;stroke-width:0.45101345"
           d="m 36.249816,147.97608 q 0,1.9385 0.470509,3.81113 0.470509,1.87262 1.345657,3.5194 0.06587,0.12234 0.08469,0.22585 0.02823,0.10351 0.02823,0.1882 0,0.18821 -0.0941,0.30113 -0.0941,0.12233 -0.225844,0.19761 l -1.035121,0.63049 q -0.696354,-1.07277 -1.185683,-2.15494 -0.48933,-1.08217 -0.799866,-2.18316 -0.310537,-1.10099 -0.461099,-2.23021 -0.141153,-1.12923 -0.141153,-2.3055 0,-1.17627 0.141153,-2.3055 0.150562,-1.13863 0.461099,-2.23962 0.310536,-1.10099 0.799866,-2.17375 0.489329,-1.08218 1.185683,-2.15494 l 1.035121,0.62108 q 0.131742,0.0753 0.225844,0.19761 0.0941,0.11292 0.0941,0.29172 0,0.17879 -0.122332,0.42345 -0.865738,1.64679 -1.336247,3.52882 -0.470509,1.87263 -0.470509,3.81113 z" />
        <path
           inkscape:connector-curvature="0"
           id="path3499"
           style="font-style:normal;font-variant:normal;font-weight:bold;font-stretch:normal;font-size:18.82037354px;font-family:Lato;-inkscape-font-specification:'Lato Bold';fill:#d1e8f4;fill-opacity:1;stroke-width:0.45101345"
           d="m 39.586312,152.59648 q 0,-0.29171 0.103512,-0.5552 0.112922,-0.26349 0.301126,-0.45169 0.197614,-0.1882 0.461099,-0.30112 0.263485,-0.11293 0.564611,-0.11293 0.291716,0 0.555201,0.11293 0.263486,0.11292 0.451689,0.30112 0.188204,0.1882 0.301126,0.45169 0.112923,0.26349 0.112923,0.5552 0,0.30113 -0.112923,0.56461 -0.112922,0.25408 -0.301126,0.44228 -0.188203,0.1882 -0.451689,0.29172 -0.263485,0.11292 -0.555201,0.11292 -0.301126,0 -0.564611,-0.11292 -0.263485,-0.10352 -0.461099,-0.29172 -0.188204,-0.1882 -0.301126,-0.44228 -0.103512,-0.26348 -0.103512,-0.56461 z" />
        <path
           inkscape:connector-curvature="0"
           id="path3501"
           style="font-style:normal;font-variant:normal;font-weight:bold;font-stretch:normal;font-size:18.82037354px;font-family:Lato;-inkscape-font-specification:'Lato Bold';fill:#d1e8f4;fill-opacity:1;stroke-width:0.45101345"
           d="m 53.440167,140.26914 v 1.00689 q 0,0.45169 -0.103512,0.73399 -0.0941,0.2729 -0.188204,0.4611 l -5.147372,10.61469 q -0.159973,0.32936 -0.451689,0.56461 -0.291716,0.22585 -0.790456,0.22585 h -1.684423 l 5.269704,-10.39826 q 0.329357,-0.63989 0.733995,-1.10099 h -6.511849 q -0.216435,0 -0.376408,-0.15997 -0.159973,-0.15998 -0.159973,-0.37641 v -1.5715 z" />
        <path
           inkscape:connector-curvature="0"
           id="path3503"
           style="font-style:normal;font-variant:normal;font-weight:bold;font-stretch:normal;font-size:18.82037354px;font-family:Lato;-inkscape-font-specification:'Lato Bold';fill:#d1e8f4;fill-opacity:1;stroke-width:0.45101345"
           d="m 60.348717,145.37887 q 0.771635,0 1.49622,0.25407 0.733994,0.25408 1.289195,0.77164 0.555201,0.50815 0.893968,1.27037 0.338767,0.76223 0.338767,1.77853 0,0.95043 -0.348177,1.78793 -0.348177,0.8281 -0.97866,1.44917 -0.630482,0.62108 -1.52445,0.97866 -0.884557,0.35759 -1.957319,0.35759 -1.091581,0 -1.957318,-0.34818 -0.865738,-0.34817 -1.4774,-0.96925 -0.611662,-0.63048 -0.941018,-1.50563 -0.319947,-0.88455 -0.319947,-1.95732 0,-0.95983 0.385818,-1.96672 0.395228,-1.0163 1.213914,-2.10789 l 3.246514,-4.35691 q 0.169384,-0.22585 0.48933,-0.38582 0.329357,-0.15997 0.752815,-0.15997 h 2.070241 l -4.03697,4.94034 q -0.131743,0.15998 -0.254075,0.30113 -0.112922,0.14115 -0.225845,0.29172 0.395228,-0.19762 0.846917,-0.31054 0.461099,-0.11292 0.99748,-0.11292 z m -3.255925,4.22517 q 0,0.56461 0.150563,1.03512 0.159974,0.4611 0.4611,0.79046 0.310536,0.32935 0.762225,0.51756 0.451689,0.17879 1.04453,0.17879 0.555201,0 1.016301,-0.1882 0.470509,-0.18821 0.799865,-0.52697 0.338767,-0.33877 0.526971,-0.79046 0.188204,-0.4611 0.188204,-0.99748 0,-0.58343 -0.178794,-1.04453 -0.178793,-0.47051 -0.50815,-0.79045 -0.329357,-0.32936 -0.790456,-0.49874 -0.461099,-0.16939 -1.0163,-0.16939 -0.555201,0 -1.00689,0.18821 -0.451689,0.1882 -0.781045,0.52697 -0.319947,0.32935 -0.49874,0.79045 -0.169384,0.45169 -0.169384,0.97866 z" />
        <path
           inkscape:connector-curvature="0"
           id="path3505"
           style="font-style:normal;font-variant:normal;font-weight:bold;font-stretch:normal;font-size:18.82037354px;font-family:Lato;-inkscape-font-specification:'Lato Bold';fill:#d1e8f4;fill-opacity:1;stroke-width:0.45101345"
           d="m 65.713997,152.44592 q 0,-0.26349 0.0941,-0.48933 0.103513,-0.23526 0.282306,-0.40464 0.178794,-0.17879 0.432869,-0.2729 0.254075,-0.10351 0.555201,-0.10351 0.357587,0 0.621072,0.13175 0.263485,0.12233 0.442279,0.34817 0.178793,0.21644 0.263485,0.50815 0.08469,0.28231 0.08469,0.60225 0,0.45169 -0.141153,0.95043 -0.131743,0.49874 -0.395228,0.99748 -0.263485,0.49874 -0.649303,0.96925 -0.385818,0.47051 -0.884557,0.86574 l -0.404638,-0.367 q -0.169384,-0.14115 -0.169384,-0.34817 0,-0.0753 0.04705,-0.16939 0.05646,-0.0941 0.131743,-0.16938 0.103512,-0.11292 0.254075,-0.28231 0.150563,-0.15997 0.301126,-0.3764 0.150563,-0.20703 0.272895,-0.4611 0.131743,-0.24467 0.188204,-0.52697 -0.291716,0 -0.536381,-0.10352 -0.244665,-0.11292 -0.423458,-0.30112 -0.169383,-0.18821 -0.272896,-0.44228 -0.0941,-0.25408 -0.0941,-0.5552 z" />
        <path
           inkscape:connector-curvature="0"
           id="path3507"
           style="font-style:normal;font-variant:normal;font-weight:bold;font-stretch:normal;font-size:18.82037354px;font-family:Lato;-inkscape-font-specification:'Lato Bold';fill:#d1e8f4;fill-opacity:1;stroke-width:0.45101345"
           d="m 69.875359,152.59648 q 0,-0.29171 0.103512,-0.5552 0.112922,-0.26349 0.301126,-0.45169 0.197614,-0.1882 0.461099,-0.30112 0.263486,-0.11293 0.564612,-0.11293 0.291715,0 0.555201,0.11293 0.263485,0.11292 0.451689,0.30112 0.188203,0.1882 0.301126,0.45169 0.112922,0.26349 0.112922,0.5552 0,0.30113 -0.112922,0.56461 -0.112923,0.25408 -0.301126,0.44228 -0.188204,0.1882 -0.451689,0.29172 -0.263486,0.11292 -0.555201,0.11292 -0.301126,0 -0.564612,-0.11292 -0.263485,-0.10352 -0.461099,-0.29172 -0.188204,-0.1882 -0.301126,-0.44228 -0.103512,-0.26348 -0.103512,-0.56461 z" />
        <path
           inkscape:connector-curvature="0"
           id="path3509"
           style="font-style:normal;font-variant:normal;font-weight:bold;font-stretch:normal;font-size:18.82037354px;font-family:Lato;-inkscape-font-specification:'Lato Bold';fill:#d1e8f4;fill-opacity:1;stroke-width:0.45101345"
           d="m 83.860941,147.0727 q 0,1.77853 -0.385817,3.09595 -0.376408,1.30802 -1.053941,2.16435 -0.668123,0.85632 -1.590322,1.27978 -0.912788,0.41405 -1.976139,0.41405 -1.063351,0 -1.976139,-0.41405 -0.903378,-0.42346 -1.571501,-1.27978 -0.668124,-0.85633 -1.044531,-2.16435 -0.376408,-1.31742 -0.376408,-3.09595 0,-1.78793 0.376408,-3.09595 0.376407,-1.30802 1.044531,-2.16434 0.668123,-0.85633 1.571501,-1.27038 0.912788,-0.42346 1.976139,-0.42346 1.063351,0 1.976139,0.42346 0.922199,0.41405 1.590322,1.27038 0.677533,0.85632 1.053941,2.16434 0.385817,1.30802 0.385817,3.09595 z m -2.399597,0 q 0,-1.4774 -0.216434,-2.44665 -0.216435,-0.96925 -0.583432,-1.54327 -0.357587,-0.57402 -0.828096,-0.79986 -0.47051,-0.23526 -0.97866,-0.23526 -0.49874,0 -0.969249,0.23526 -0.461099,0.22584 -0.818686,0.79986 -0.357587,0.57402 -0.574022,1.54327 -0.207024,0.96925 -0.207024,2.44665 0,1.4774 0.207024,2.44665 0.216435,0.96925 0.574022,1.54327 0.357587,0.57402 0.818686,0.80928 0.470509,0.22584 0.969249,0.22584 0.50815,0 0.97866,-0.22584 0.470509,-0.23526 0.828096,-0.80928 0.366997,-0.57402 0.583432,-1.54327 0.216434,-0.96925 0.216434,-2.44665 z" />
        <path
           inkscape:connector-curvature="0"
           id="path3511"
           style="font-style:normal;font-variant:normal;font-weight:bold;font-stretch:normal;font-size:18.82037354px;font-family:Lato;-inkscape-font-specification:'Lato Bold';fill:#d1e8f4;fill-opacity:1;stroke-width:0.45101345"
           d="m 89.79084,154.02683 q -1.053941,0 -1.929088,-0.28231 -0.865738,-0.2823 -1.48681,-0.79986 -0.621072,-0.51756 -0.969249,-1.25156 -0.338767,-0.73399 -0.338767,-1.63737 0,-1.2045 0.592842,-2.0326 0.592842,-0.83751 1.844396,-1.24214 -0.997479,-0.41405 -1.496219,-1.17628 -0.48933,-0.76222 -0.48933,-1.83498 0,-0.77164 0.310536,-1.43976 0.319947,-0.66813 0.884558,-1.15746 0.564611,-0.49874 1.345656,-0.77163 0.790456,-0.28231 1.731475,-0.28231 0.941019,0 1.722064,0.28231 0.790456,0.27289 1.355067,0.77163 0.564611,0.48933 0.875147,1.15746 0.319947,0.66812 0.319947,1.43976 0,1.07276 -0.49874,1.83498 -0.49874,0.76223 -1.48681,1.17628 1.251555,0.40463 1.844397,1.24214 0.592842,0.8281 0.592842,2.0326 0,0.90338 -0.348177,1.63737 -0.338767,0.734 -0.959839,1.25156 -0.621073,0.51756 -1.49622,0.79986 -0.865737,0.28231 -1.919678,0.28231 z m 0,-1.81617 q 0.574021,0 1.00689,-0.15997 0.432868,-0.16938 0.724584,-0.4611 0.301126,-0.29171 0.451689,-0.69635 0.150563,-0.40464 0.150563,-0.87515 0,-1.11981 -0.621072,-1.69383 -0.621072,-0.57403 -1.712654,-0.57403 -1.091582,0 -1.712654,0.57403 -0.621072,0.57402 -0.621072,1.69383 0,0.47051 0.150563,0.87515 0.150563,0.40464 0.442278,0.69635 0.301126,0.29172 0.733995,0.4611 0.432868,0.15997 1.00689,0.15997 z m 0,-6.286 q 0.564611,0 0.950429,-0.17879 0.385817,-0.1788 0.621072,-0.47051 0.235255,-0.30113 0.329357,-0.67754 0.103512,-0.38582 0.103512,-0.79045 0,-0.38582 -0.122333,-0.734 -0.122332,-0.34817 -0.366997,-0.61166 -0.244665,-0.2729 -0.621072,-0.43287 -0.376408,-0.15997 -0.893968,-0.15997 -0.51756,0 -0.893968,0.15997 -0.376407,0.15997 -0.630482,0.43287 -0.244665,0.26349 -0.366998,0.61166 -0.112922,0.34818 -0.112922,0.734 0,0.40463 0.0941,0.79045 0.103512,0.37641 0.338767,0.67754 0.235254,0.29171 0.621072,0.47051 0.385818,0.17879 0.950429,0.17879 z" />
        <path
           inkscape:connector-curvature="0"
           id="path3513"
           style="font-style:normal;font-variant:normal;font-weight:bold;font-stretch:normal;font-size:18.82037354px;font-family:Lato;-inkscape-font-specification:'Lato Bold';fill:#d1e8f4;fill-opacity:1;stroke-width:0.45101345"
           d="m 96.003029,152.44592 q 0,-0.26349 0.0941,-0.48933 0.103512,-0.23526 0.282306,-0.40464 0.178794,-0.17879 0.432869,-0.2729 0.254075,-0.10351 0.555201,-0.10351 0.357587,0 0.621072,0.13175 0.263485,0.12233 0.442279,0.34817 0.178793,0.21644 0.263485,0.50815 0.08469,0.28231 0.08469,0.60225 0,0.45169 -0.141153,0.95043 -0.131743,0.49874 -0.395228,0.99748 -0.263485,0.49874 -0.649303,0.96925 -0.385818,0.47051 -0.884557,0.86574 l -0.404638,-0.367 q -0.169384,-0.14115 -0.169384,-0.34817 0,-0.0753 0.04705,-0.16939 0.05646,-0.0941 0.131743,-0.16938 0.103512,-0.11292 0.254075,-0.28231 0.150563,-0.15997 0.301126,-0.3764 0.150563,-0.20703 0.272895,-0.4611 0.131743,-0.24467 0.188204,-0.52697 -0.291716,0 -0.536381,-0.10352 -0.244665,-0.11292 -0.423458,-0.30112 -0.169384,-0.18821 -0.272896,-0.44228 -0.0941,-0.25408 -0.0941,-0.5552 z" />
        <path
           inkscape:connector-curvature="0"
           id="path3515"
           style="font-style:normal;font-variant:normal;font-weight:bold;font-stretch:normal;font-size:18.82037354px;font-family:Lato;-inkscape-font-specification:'Lato Bold';fill:#d1e8f4;fill-opacity:1;stroke-width:0.45101345"
           d="m 100.16439,152.59648 q 0,-0.29171 0.10351,-0.5552 0.11293,-0.26349 0.30113,-0.45169 0.19761,-0.1882 0.4611,-0.30112 0.26348,-0.11293 0.56461,-0.11293 0.29172,0 0.5552,0.11293 0.26349,0.11292 0.45169,0.30112 0.1882,0.1882 0.30113,0.45169 0.11292,0.26349 0.11292,0.5552 0,0.30113 -0.11292,0.56461 -0.11293,0.25408 -0.30113,0.44228 -0.1882,0.1882 -0.45169,0.29172 -0.26348,0.11292 -0.5552,0.11292 -0.30113,0 -0.56461,-0.11292 -0.26349,-0.10352 -0.4611,-0.29172 -0.1882,-0.1882 -0.30113,-0.44228 -0.10351,-0.26348 -0.10351,-0.56461 z" />
        <path
           inkscape:connector-curvature="0"
           id="path3517"
           style="font-style:normal;font-variant:normal;font-weight:bold;font-stretch:normal;font-size:18.82037354px;font-family:Lato;-inkscape-font-specification:'Lato Bold';fill:#d1e8f4;fill-opacity:1;stroke-width:0.45101345"
           d="m 109.36961,140.11857 q 0.94102,0 1.72207,0.28231 0.78104,0.27289 1.33624,0.78104 0.55521,0.50815 0.86574,1.22333 0.31054,0.71517 0.31054,1.59032 0,0.75282 -0.22585,1.39271 -0.21643,0.63989 -0.59284,1.22332 -0.367,0.58343 -0.86574,1.12922 -0.49874,0.5458 -1.04453,1.11041 l -3.06772,3.13359 q 0.45169,-0.13174 0.88456,-0.19761 0.43287,-0.0753 0.8281,-0.0753 h 3.49118 q 0.3764,0 0.59284,0.21644 0.22584,0.20702 0.22584,0.5552 v 1.39271 h -9.3349 v -0.77164 q 0,-0.23525 0.0941,-0.48933 0.10351,-0.25407 0.31995,-0.47051 l 4.13107,-4.14048 q 0.51756,-0.52697 0.9222,-1.00689 0.41404,-0.47992 0.68694,-0.95043 0.2823,-0.47051 0.42346,-0.95043 0.15056,-0.48933 0.15056,-1.02571 0,-0.48933 -0.14115,-0.85633 -0.14115,-0.3764 -0.40464,-0.63048 -0.26349,-0.25407 -0.63048,-0.37641 -0.35759,-0.13174 -0.80928,-0.13174 -0.83751,0 -1.3833,0.42346 -0.53638,0.42346 -0.75281,1.13863 -0.10351,0.35759 -0.31054,0.51756 -0.20702,0.15057 -0.52697,0.15057 -0.14115,0 -0.31053,-0.0282 l -1.22333,-0.21644 q 0.14115,-0.97866 0.54579,-1.71265 0.40464,-0.74341 1.00689,-1.23274 0.61166,-0.49874 1.39271,-0.7434 0.79046,-0.25408 1.69383,-0.25408 z" />
        <path
           inkscape:connector-curvature="0"
           id="path3519"
           style="font-style:normal;font-variant:normal;font-weight:bold;font-stretch:normal;font-size:18.82037354px;font-family:Lato;-inkscape-font-specification:'Lato Bold';fill:#d1e8f4;fill-opacity:1;stroke-width:0.45101345"
           d="m 120.92679,145.37887 q 0.77163,0 1.49622,0.25407 0.73399,0.25408 1.28919,0.77164 0.5552,0.50815 0.89397,1.27037 0.33877,0.76223 0.33877,1.77853 0,0.95043 -0.34818,1.78793 -0.34818,0.8281 -0.97866,1.44917 -0.63048,0.62108 -1.52445,0.97866 -0.88456,0.35759 -1.95732,0.35759 -1.09158,0 -1.95732,-0.34818 -0.86573,-0.34817 -1.4774,-0.96925 -0.61166,-0.63048 -0.94101,-1.50563 -0.31995,-0.88455 -0.31995,-1.95732 0,-0.95983 0.38582,-1.96672 0.39523,-1.0163 1.21391,-2.10789 l 3.24652,-4.35691 q 0.16938,-0.22585 0.48933,-0.38582 0.32935,-0.15997 0.75281,-0.15997 h 2.07024 l -4.03697,4.94034 q -0.13174,0.15998 -0.25407,0.30113 -0.11293,0.14115 -0.22585,0.29172 0.39523,-0.19762 0.84692,-0.31054 0.4611,-0.11292 0.99748,-0.11292 z m -3.25593,4.22517 q 0,0.56461 0.15057,1.03512 0.15997,0.4611 0.4611,0.79046 0.31053,0.32935 0.76222,0.51756 0.45169,0.17879 1.04453,0.17879 0.5552,0 1.0163,-0.1882 0.47051,-0.18821 0.79987,-0.52697 0.33876,-0.33877 0.52697,-0.79046 0.1882,-0.4611 0.1882,-0.99748 0,-0.58343 -0.17879,-1.04453 -0.17879,-0.47051 -0.50815,-0.79045 -0.32936,-0.32936 -0.79046,-0.49874 -0.4611,-0.16939 -1.0163,-0.16939 -0.5552,0 -1.00689,0.18821 -0.45169,0.1882 -0.78104,0.52697 -0.31995,0.32935 -0.49874,0.79045 -0.16939,0.45169 -0.16939,0.97866 z" />
        <path
           inkscape:connector-curvature="0"
           id="path3521"
           style="font-style:normal;font-variant:normal;font-weight:bold;font-stretch:normal;font-size:18.82037354px;font-family:Lato;-inkscape-font-specification:'Lato Bold';fill:#d1e8f4;fill-opacity:1;stroke-width:0.45101345"
           d="m 126.29206,152.44592 q 0,-0.26349 0.0941,-0.48933 0.10351,-0.23526 0.28231,-0.40464 0.17879,-0.17879 0.43287,-0.2729 0.25407,-0.10351 0.5552,-0.10351 0.35758,0 0.62107,0.13175 0.26349,0.12233 0.44228,0.34817 0.17879,0.21644 0.26348,0.50815 0.0847,0.28231 0.0847,0.60225 0,0.45169 -0.14116,0.95043 -0.13174,0.49874 -0.39523,0.99748 -0.26348,0.49874 -0.6493,0.96925 -0.38582,0.47051 -0.88456,0.86574 l -0.40463,-0.367 q -0.16939,-0.14115 -0.16939,-0.34817 0,-0.0753 0.047,-0.16939 0.0565,-0.0941 0.13175,-0.16938 0.10351,-0.11292 0.25407,-0.28231 0.15056,-0.15997 0.30113,-0.3764 0.15056,-0.20703 0.27289,-0.4611 0.13175,-0.24467 0.18821,-0.52697 -0.29172,0 -0.53638,-0.10352 -0.24467,-0.11292 -0.42346,-0.30112 -0.16939,-0.18821 -0.2729,-0.44228 -0.0941,-0.25408 -0.0941,-0.5552 z" />
        <path
           inkscape:connector-curvature="0"
           id="path3523"
           style="font-style:normal;font-variant:normal;font-weight:bold;font-stretch:normal;font-size:18.82037354px;font-family:Lato;-inkscape-font-specification:'Lato Bold';fill:#d1e8f4;fill-opacity:1;stroke-width:0.45101345"
           d="m 132.29782,152.13538 h 2.75718 v -7.93279 q 0,-0.46109 0.0282,-0.96924 l -1.95732,1.63737 q -0.12234,0.10351 -0.25408,0.14115 -0.12233,0.0376 -0.24466,0.0376 -0.18821,0 -0.34818,-0.0753 -0.15056,-0.0847 -0.22585,-0.1882 l -0.73399,-1.00689 4.14989,-3.52882 h 1.91027 v 11.88506 h 2.44665 v 1.74089 h -7.52815 z" />
        <path
           inkscape:connector-curvature="0"
           id="path3525"
           style="font-style:normal;font-variant:normal;font-weight:bold;font-stretch:normal;font-size:18.82037354px;font-family:Lato;-inkscape-font-specification:'Lato Bold';fill:#d1e8f4;fill-opacity:1;stroke-width:0.45101345"
           d="m 141.37072,152.59648 q 0,-0.29171 0.10351,-0.5552 0.11292,-0.26349 0.30113,-0.45169 0.19761,-0.1882 0.4611,-0.30112 0.26348,-0.11293 0.56461,-0.11293 0.29171,0 0.5552,0.11293 0.26349,0.11292 0.45169,0.30112 0.1882,0.1882 0.30112,0.45169 0.11293,0.26349 0.11293,0.5552 0,0.30113 -0.11293,0.56461 -0.11292,0.25408 -0.30112,0.44228 -0.1882,0.1882 -0.45169,0.29172 -0.26349,0.11292 -0.5552,0.11292 -0.30113,0 -0.56461,-0.11292 -0.26349,-0.10352 -0.4611,-0.29172 -0.18821,-0.1882 -0.30113,-0.44228 -0.10351,-0.26348 -0.10351,-0.56461 z" />
        <path
           inkscape:connector-curvature="0"
           id="path3527"
           style="font-style:normal;font-variant:normal;font-weight:bold;font-stretch:normal;font-size:18.82037354px;font-family:Lato;-inkscape-font-specification:'Lato Bold';fill:#d1e8f4;fill-opacity:1;stroke-width:0.45101345"
           d="m 150.79238,140.11857 q 0.94102,0 1.69383,0.2729 0.76223,0.26348 1.29861,0.7434 0.53638,0.47051 0.81868,1.11041 0.29172,0.63989 0.29172,1.38329 0,0.64931 -0.15056,1.14805 -0.14116,0.48933 -0.42346,0.85632 -0.2729,0.367 -0.67754,0.62108 -0.39522,0.25407 -0.90337,0.42345 1.22332,0.38582 1.82557,1.17628 0.60225,0.79045 0.60225,1.98555 0,1.0163 -0.3764,1.79734 -0.37641,0.78105 -1.0163,1.31743 -0.6399,0.52697 -1.48681,0.79986 -0.83751,0.2729 -1.77853,0.2729 -1.02571,0 -1.78793,-0.23526 -0.76223,-0.23525 -1.32684,-0.69635 -0.56461,-0.4611 -0.95984,-1.12922 -0.39523,-0.66812 -0.67753,-1.54327 l 1.02571,-0.42346 q 0.26348,-0.11292 0.53638,-0.11292 0.24466,0 0.43287,0.10351 0.19761,0.10351 0.30112,0.30113 0.16939,0.32935 0.367,0.6493 0.20702,0.31994 0.48933,0.57402 0.28231,0.24466 0.65871,0.40464 0.38582,0.15056 0.91279,0.15056 0.59284,0 1.03512,-0.1882 0.44228,-0.19762 0.734,-0.50815 0.30112,-0.31054 0.44228,-0.68695 0.15056,-0.38581 0.15056,-0.77163 0,-0.48933 -0.10351,-0.88456 -0.10352,-0.40464 -0.43287,-0.68694 -0.32936,-0.28231 -0.95043,-0.44228 -0.61166,-0.15998 -1.64678,-0.15998 v -1.65619 q 0.85632,-0.009 1.42093,-0.15997 0.56462,-0.15056 0.89397,-0.41405 0.33877,-0.27289 0.47051,-0.6493 0.13174,-0.37641 0.13174,-0.8281 0,-0.96925 -0.52697,-1.45858 -0.52697,-0.49874 -1.43976,-0.49874 -0.82809,0 -1.37388,0.44228 -0.54579,0.43287 -0.76223,1.11981 -0.11292,0.35759 -0.31053,0.51756 -0.19762,0.15057 -0.51756,0.15057 -0.15057,0 -0.31995,-0.0282 l -1.22332,-0.21644 q 0.14115,-0.97866 0.54579,-1.71265 0.40463,-0.74341 1.00689,-1.23274 0.61166,-0.49874 1.3927,-0.7434 0.79046,-0.25408 1.69384,-0.25408 z" />
        <path
           inkscape:connector-curvature="0"
           id="path3529"
           style="font-style:normal;font-variant:normal;font-weight:bold;font-stretch:normal;font-size:18.82037354px;font-family:Lato;-inkscape-font-specification:'Lato Bold';fill:#d1e8f4;fill-opacity:1;stroke-width:0.45101345"
           d="m 164.69269,148.74771 h 1.71265 v 1.34566 q 0,0.18821 -0.12233,0.32936 -0.12233,0.13174 -0.35759,0.13174 h -1.23273 v 3.3218 h -2.0326 v -3.3218 h -5.74022 q -0.23525,0 -0.41404,-0.14115 -0.1788,-0.15057 -0.22585,-0.367 l -0.23525,-1.17627 6.44598,-8.61032 h 2.20198 z m -2.0326,-4.45101 q 0,-0.30113 0.0188,-0.64931 0.0188,-0.34817 0.0659,-0.72458 l -4.22517,5.8249 h 4.14048 z" />
        <path
           inkscape:connector-curvature="0"
           id="path3531"
           style="font-style:normal;font-variant:normal;font-weight:bold;font-stretch:normal;font-size:18.82037354px;font-family:Lato;-inkscape-font-specification:'Lato Bold';fill:#d1e8f4;fill-opacity:1;stroke-width:0.45101345"
           d="m 169.38043,147.97608 q 0,-1.9385 -0.47051,-3.81113 -0.47051,-1.88203 -1.33625,-3.52882 -0.12233,-0.24466 -0.12233,-0.42345 0,-0.1788 0.0941,-0.29172 0.0941,-0.12233 0.22585,-0.19761 l 1.03512,-0.62108 q 0.69635,1.07276 1.18568,2.15494 0.48933,1.07276 0.79987,2.17375 0.31053,1.10099 0.45168,2.23962 0.15057,1.12923 0.15057,2.3055 0,1.17627 -0.15057,2.3055 -0.14115,1.12922 -0.45168,2.23021 -0.31054,1.10099 -0.79987,2.18316 -0.48933,1.08217 -1.18568,2.15494 l -1.03512,-0.63049 q -0.13175,-0.0753 -0.22585,-0.19761 -0.0941,-0.11292 -0.0941,-0.30113 0,-0.0847 0.0188,-0.1882 0.0282,-0.10351 0.0941,-0.22585 0.87515,-1.64678 1.34566,-3.5194 0.47051,-1.87263 0.47051,-3.81113 z" />
        <path
           inkscape:connector-curvature="0"
           id="path3533"
           style="font-style:normal;font-variant:normal;font-weight:bold;font-stretch:normal;font-size:18.82037354px;font-family:Lato;-inkscape-font-specification:'Lato Bold';fill:#d1e8f4;fill-opacity:1;stroke-width:0.45101345"
           d="m 173.53561,152.44592 q 0,-0.26349 0.0941,-0.48933 0.10351,-0.23526 0.28231,-0.40464 0.17879,-0.17879 0.43287,-0.2729 0.25407,-0.10351 0.5552,-0.10351 0.35758,0 0.62107,0.13175 0.26348,0.12233 0.44228,0.34817 0.17879,0.21644 0.26348,0.50815 0.0847,0.28231 0.0847,0.60225 0,0.45169 -0.14115,0.95043 -0.13174,0.49874 -0.39523,0.99748 -0.26348,0.49874 -0.6493,0.96925 -0.38582,0.47051 -0.88456,0.86574 l -0.40463,-0.367 q -0.16939,-0.14115 -0.16939,-0.34817 0,-0.0753 0.0471,-0.16939 0.0565,-0.0941 0.13175,-0.16938 0.10351,-0.11292 0.25407,-0.28231 0.15056,-0.15997 0.30113,-0.3764 0.15056,-0.20703 0.27289,-0.4611 0.13174,-0.24467 0.18821,-0.52697 -0.29172,0 -0.53638,-0.10352 -0.24467,-0.11292 -0.42346,-0.30112 -0.16939,-0.18821 -0.2729,-0.44228 -0.0941,-0.25408 -0.0941,-0.5552 z m -0.0659,-6.5589 q 0,-0.29172 0.10351,-0.5552 0.11292,-0.26349 0.30113,-0.45169 0.19761,-0.18821 0.4611,-0.30113 0.26348,-0.11292 0.56461,-0.11292 0.29171,0 0.5552,0.11292 0.26348,0.11292 0.45169,0.30113 0.1882,0.1882 0.30112,0.45169 0.11293,0.26348 0.11293,0.5552 0,0.30112 -0.11293,0.56461 -0.11292,0.25407 -0.30112,0.44228 -0.18821,0.1882 -0.45169,0.30112 -0.26349,0.10352 -0.5552,0.10352 -0.30113,0 -0.56461,-0.10352 -0.26349,-0.11292 -0.4611,-0.30112 -0.18821,-0.18821 -0.30113,-0.44228 -0.10351,-0.26349 -0.10351,-0.56461 z" />
      </g>
    </g>
    <circle
       style="opacity:0.24299999;fill:#83a8ff;fill-opacity:1;stroke:none;stroke-width:1.79813361;stroke-linecap:round;stroke-linejoin:round;stroke-miterlimit:4;stroke-dasharray:none;stroke-dashoffset:0;stroke-opacity:0.77184466"
       id="path4397"
       cx="364.63504"
       cy="46.585445"
       r="47.289696" />
    <circle
       cy="-47.99395"
       cx="335.41541"
       id="circle4399"
       style="opacity:1;fill:#cde6f3;fill-opacity:1;stroke:none;stroke-width:0.1900467;stroke-linecap:round;stroke-linejoin:round;stroke-miterlimit:4;stroke-dasharray:none;stroke-dashoffset:0;stroke-opacity:0.77184466"
       r="4.9980998" />
    <circle
       r="4.9980998"
       style="opacity:1;fill:#cde6f3;fill-opacity:1;stroke:none;stroke-width:0.1900467;stroke-linecap:round;stroke-linejoin:round;stroke-miterlimit:4;stroke-dasharray:none;stroke-dashoffset:0;stroke-opacity:0.77184466"
       id="circle4410"
       cx="177.7831"
       cy="51.968006" />
    <circle
       cy="-66.002037"
       cx="130.55537"
       id="circle4412"
       style="opacity:1;fill:#cde6f3;fill-opacity:1;stroke:none;stroke-width:0.06083203;stroke-linecap:round;stroke-linejoin:round;stroke-miterlimit:4;stroke-dasharray:none;stroke-dashoffset:0;stroke-opacity:0.77184466"
       r="1.5998411" />
    <circle
       r="1.9223473"
       style="opacity:1;fill:#cde6f3;fill-opacity:1;stroke:none;stroke-width:0.07309493;stroke-linecap:round;stroke-linejoin:round;stroke-miterlimit:4;stroke-dasharray:none;stroke-dashoffset:0;stroke-opacity:0.77184466"
       id="circle4414"
       cx="280.05185"
       cy="-104.12643" />
    <text
       xml:space="preserve"
       style="font-style:normal;font-weight:normal;font-size:35.00305176px;line-height:1.25;font-family:sans-serif;letter-spacing:0px;word-spacing:0px;opacity:0.82599996;fill:#7f8bec;fill-opacity:1;stroke:none;stroke-width:0.87507623;filter:url(#filter4476)"
       x="1185.1863"
       y="284.35846"
       id="text4418"
       transform="matrix(0.35962673,0,0,0.35962673,-121.71832,-69.066474)"><tspan
         sodipodi:role="line"
         id="tspan4416"
         x="1185.1863"
         y="284.35846"
         style="font-style:normal;font-variant:normal;font-weight:normal;font-stretch:normal;font-family:'Arial Rounded MT Bold';-inkscape-font-specification:'Arial Rounded MT Bold, ';fill:#7f8bec;fill-opacity:1;stroke-width:0.87507623">miracleio</tspan></text>
    <text
       id="text4482"
       y="33.19643"
       x="304.50635"
       style="font-style:normal;font-weight:normal;font-size:12.58803272px;line-height:1.25;font-family:sans-serif;letter-spacing:0px;word-spacing:0px;opacity:0.54900004;fill:#7f8bec;fill-opacity:1;stroke:none;stroke-width:0.31470081"
       xml:space="preserve"><tspan
         style="font-style:normal;font-variant:normal;font-weight:normal;font-stretch:normal;font-family:'Arial Rounded MT Bold';-inkscape-font-specification:'Arial Rounded MT Bold, ';fill:#7f8bec;fill-opacity:1;stroke-width:0.31470081"
         y="33.19643"
         x="304.50635"
         id="tspan4480"
         sodipodi:role="line">miracleio</tspan></text>
  </g>
</svg>
