<?xml version="1.0" encoding="UTF-8" standalone="no"?>
<!-- Created with Inkscape (http://www.inkscape.org/) -->

<svg
   xmlns:dc="http://purl.org/dc/elements/1.1/"
   xmlns:cc="http://creativecommons.org/ns#"
   xmlns:rdf="http://www.w3.org/1999/02/22-rdf-syntax-ns#"
   xmlns:svg="http://www.w3.org/2000/svg"
   xmlns="http://www.w3.org/2000/svg"
   xmlns:sodipodi="http://sodipodi.sourceforge.net/DTD/sodipodi-0.dtd"
   xmlns:inkscape="http://www.inkscape.org/namespaces/inkscape"
   width="300"
   height="300"
   viewBox="0 0 0.003 0.003"
   version="1.1"
   id="svg8"
   inkscape:version="0.92.4 (5da689c313, 2019-01-14)"
   sodipodi:docname="heart.svg">
  <defs
     id="defs2" />
  <sodipodi:namedview
     id="base"
     pagecolor="#ffffff"
     bordercolor="#666666"
     borderopacity="1.0"
     inkscape:pageopacity="0.0"
     inkscape:pageshadow="2"
     inkscape:zoom="0.01"
     inkscape:cx="2677918.8"
     inkscape:cy="-6561401"
     inkscape:document-units="px"
     inkscape:current-layer="layer1"
     showgrid="false"
     units="px"
     inkscape:snap-nodes="false"
     inkscape:snap-others="false"
     inkscape:snap-bbox="true"
     inkscape:bbox-nodes="true"
     inkscape:window-width="1366"
     inkscape:window-height="705"
     inkscape:window-x="-32000"
     inkscape:window-y="-32000"
     inkscape:window-maximized="0" />
  <metadata
     id="metadata5">
    <rdf:RDF>
      <cc:Work
         rdf:about="">
        <dc:format>image/svg+xml</dc:format>
        <dc:type
           rdf:resource="http://purl.org/dc/dcmitype/StillImage" />
        <dc:title></dc:title>
      </cc:Work>
    </rdf:RDF>
  </metadata>
  <g
     inkscape:label="Layer 1"
     inkscape:groupmode="layer"
     id="layer1"
     transform="translate(0,-217.62498)">
    <g
       transform="translate(-45.034892,74.32088)"
       id="g841">
      <path
         style="opacity:1;fill:#f54d91;fill-opacity:1;stroke:#000000;stroke-width:0;stroke-linecap:round;stroke-linejoin:round;stroke-miterlimit:4;stroke-dasharray:none;stroke-dashoffset:0;stroke-opacity:1"
         d="m -130.23242,44.134766 c -10.21316,0.0714 -20.09656,4.013134 -27.92774,11.609375 -0.67968,0.679706 -1.27999,1.278026 -1.95312,1.951171 l -1.0586,-1.058593 c -16.0209,-16.02091 -41.81698,-16.02091 -57.83789,0 -16.02091,16.020909 -16.02091,41.816981 0,57.837891 l 30,30 c 1.23308,1.23308 2.53113,2.35908 3.8711,3.40234 l 25.27929,25.2793 c 9.3606,-9.20453 18.66247,-18.59659 27.95508,-27.98437 0.24416,-0.23266 0.49258,-0.45743 0.73242,-0.69727 0.32483,-0.32483 0.63171,-0.66144 0.94336,-0.99414 9.95866,-10.06083 19.90907,-20.10502 29.9043,-29.90039 16.020912,-16.020917 16.020912,-41.81503 0,-57.835939 -9.15215,-7.881849 -19.69505,-11.680777 -29.9082,-11.609375 z"
         transform="matrix(1e-5,0,0,1e-5,0.00320218,217.62544)"
         id="rect815"
         inkscape:connector-curvature="0" />
    </g>
    <path
       style="opacity:1;fill:#f54d91;fill-opacity:1;stroke:#000000;stroke-width:0;stroke-linecap:round;stroke-linejoin:round;stroke-miterlimit:4;stroke-dasharray:none;stroke-dashoffset:0;stroke-opacity:1"
       d="m -45.033087,291.94672 c -1.05e-4,0 -2.09e-4,4e-5 -2.89e-4,1.2e-4 l -1.7e-5,2e-5 h -1e-6 l -1.3e-5,-2e-5 c -1.6e-4,-1.6e-4 -4.18e-4,-1.6e-4 -5.78e-4,0 -1.6e-4,1.6e-4 -1.6e-4,4.2e-4 0,5.8e-4 l 3e-4,3e-4 c 0,0 0,0 0,0 l 2.92e-4,2.9e-4 5.78e-4,-5.7e-4 0,-10e-6 1.7e-5,-10e-6 c 1.6e-4,-1.6e-4 1.6e-4,-4.2e-4 0,-5.8e-4 -8e-5,-8e-5 -1.85e-4,-1.2e-4 -2.89e-4,-1.2e-4 z"
       id="rect831"
       inkscape:connector-curvature="0" />
    <path
       style="opacity:1;fill:#f54d91;fill-opacity:1;stroke:#000000;stroke-width:0;stroke-linecap:round;stroke-linejoin:round;stroke-miterlimit:4;stroke-dasharray:none;stroke-dashoffset:0;stroke-opacity:1"
       d="m 45.815539,83.12496 v 0 c -9.287196,-9.26807 -24.35139,-9.26807 -33.648149,0 l -7.2021186,7.19255 -7.211684,-7.19255 c -9.2871954,-9.26807 -24.3513884,-9.26807 -33.6385824,0 v 0 c -9.287195,9.26807 -9.287195,24.30357 0,33.57163 L 4.9652714,157.47034 45.815539,116.69659 c 9.296755,-9.26806 9.296755,-24.30357 0,-33.57163 z"
       id="path856"
       inkscape:connector-curvature="0"
       sodipodi:nodetypes="cccsccc" />
  </g>
</svg>
